<?xml version="1.0" encoding="utf-8"?>
<!-- Generator: Adobe Illustrator 15.0.0, SVG Export Plug-In . SVG Version: 6.00 Build 0)  -->
<!DOCTYPE svg PUBLIC "-//W3C//DTD SVG 1.1//EN" "http://www.w3.org/Graphics/SVG/1.1/DTD/svg11.dtd">
<svg version="1.1" id="Capa_1" xmlns="http://www.w3.org/2000/svg" xmlns:xlink="http://www.w3.org/1999/xlink" x="0px" y="0px"
	 width="36px" height="35px" viewBox="90 0 36 35" enable-background="new 90 0 36 35" xml:space="preserve">
<path fill="#FFFFFF" d="M114.599,16.391l-8.04-8.027c-0.296-0.312-0.666-0.469-1.109-0.469c-0.444,0-0.814,0.156-1.11,0.469
	l-0.937,0.925c-0.304,0.304-0.457,0.674-0.457,1.109c0,0.428,0.152,0.802,0.457,1.122l5.994,5.98l-5.994,5.992
	c-0.304,0.305-0.457,0.675-0.457,1.11c0,0.428,0.152,0.802,0.457,1.122l0.937,0.925c0.304,0.304,0.674,0.456,1.11,0.456
	c0.436,0,0.805-0.152,1.109-0.456l8.04-8.027c0.304-0.32,0.456-0.694,0.456-1.122C115.055,17.064,114.902,16.694,114.599,16.391z"/>
</svg>
