<?xml version="1.0" encoding="utf-8"?>
<!-- Generator: Adobe Illustrator 15.0.0, SVG Export Plug-In . SVG Version: 6.00 Build 0)  -->
<!DOCTYPE svg PUBLIC "-//W3C//DTD SVG 1.1//EN" "http://www.w3.org/Graphics/SVG/1.1/DTD/svg11.dtd">
<svg version="1.1" id="Capa_1" xmlns="http://www.w3.org/2000/svg" xmlns:xlink="http://www.w3.org/1999/xlink" x="0px" y="0px"
	 width="36px" height="35px" viewBox="90 0 36 35" enable-background="new 90 0 36 35" xml:space="preserve">
<path fill="#FFFFFF" d="M118.07,25.278l-4.345-4.345c1.047-1.512,1.571-3.196,1.571-5.054c0-1.208-0.235-2.362-0.703-3.464
	c-0.469-1.102-1.103-2.052-1.9-2.85c-0.798-0.798-1.748-1.432-2.85-1.9c-1.103-0.469-2.258-0.703-3.465-0.703
	c-1.208,0-2.362,0.234-3.465,0.703c-1.102,0.468-2.052,1.102-2.85,1.9c-0.798,0.798-1.432,1.748-1.9,2.85s-0.703,2.257-0.703,3.464
	s0.234,2.362,0.703,3.464s1.103,2.052,1.9,2.85c0.798,0.798,1.748,1.431,2.85,1.9c1.103,0.469,2.257,0.703,3.465,0.703
	c1.858,0,3.543-0.524,5.054-1.571l4.345,4.332c0.304,0.321,0.684,0.481,1.14,0.481c0.439,0,0.82-0.16,1.141-0.481
	c0.32-0.32,0.481-0.701,0.481-1.14C118.539,25.97,118.383,25.59,118.07,25.278z M110.388,19.888
	c-1.11,1.111-2.446,1.666-4.009,1.666s-2.898-0.555-4.009-1.666c-1.111-1.11-1.666-2.447-1.666-4.009
	c0-1.562,0.556-2.899,1.666-4.009s2.446-1.666,4.009-1.666s2.898,0.555,4.009,1.666s1.666,2.447,1.666,4.009
	C112.054,17.441,111.498,18.777,110.388,19.888z"/>
</svg>
