<?xml version="1.0" encoding="utf-8"?>
<!-- Generator: Adobe Illustrator 16.0.0, SVG Export Plug-In . SVG Version: 6.00 Build 0)  -->
<svg version="1.2" baseProfile="tiny" id="Layer_1" xmlns="http://www.w3.org/2000/svg" xmlns:xlink="http://www.w3.org/1999/xlink"
	 x="0px" y="0px" width="195px" height="30.762px" viewBox="0 0 195 30.762" xml:space="preserve">
<g>
	<g>
		<path fill="#EB0029" d="M61.191,24.579c0,1.272-0.325,2.375-0.978,3.305c-0.65,0.928-1.558,1.642-2.723,2.135
			c-1.165,0.497-2.502,0.743-4.009,0.743c-0.422,0-0.938-0.028-1.549-0.081c-0.613-0.054-1.425-0.203-2.439-0.448
			c-1.013-0.244-2.068-0.606-3.164-1.086v-4.994c1.027,0.637,2.039,1.166,3.033,1.586c0.993,0.421,2.058,0.632,3.193,0.632
			c1.047,0,1.725-0.173,2.034-0.521c0.31-0.347,0.463-0.673,0.463-0.977c0-0.549-0.265-1.01-0.793-1.387
			c-0.528-0.378-1.298-0.767-2.307-1.167c-1.115-0.47-2.096-0.982-2.936-1.534c-0.844-0.555-1.53-1.247-2.065-2.08
			c-0.532-0.831-0.8-1.816-0.8-2.952c0-1.096,0.27-2.086,0.809-2.973c0.538-0.886,1.359-1.593,2.466-2.122
			c1.107-0.529,2.458-0.793,4.055-0.793c1.135,0,2.185,0.11,3.149,0.329c0.965,0.221,1.759,0.469,2.387,0.743
			c0.625,0.274,1.057,0.49,1.292,0.647v4.772c-0.833-0.599-1.76-1.131-2.783-1.603c-1.022-0.469-2.117-0.704-3.281-0.704
			c-0.764,0-1.318,0.147-1.66,0.439c-0.343,0.294-0.515,0.657-0.515,1.086c0,0.403,0.172,0.75,0.515,1.044
			c0.342,0.293,0.954,0.65,1.835,1.072c1.567,0.734,2.82,1.394,3.761,1.983c0.939,0.587,1.676,1.265,2.209,2.033
			C60.925,22.477,61.191,23.434,61.191,24.579"/>
		<path fill="#EB0029" d="M80.027,20.492c0-0.75-0.109-1.435-0.33-2.055c-0.221-0.62-0.556-1.158-1.003-1.615
			c-0.446-0.458-0.991-0.811-1.638-1.067c-0.644-0.255-1.389-0.383-2.235-0.383c-1.614,0-2.884,0.472-3.807,1.412
			c-0.923,0.943-1.385,2.179-1.385,3.708c0,1.529,0.465,2.767,1.393,3.715c0.928,0.947,2.194,1.42,3.799,1.42
			c1.106,0,2.049-0.219,2.827-0.657c0.779-0.438,1.37-1.043,1.774-1.817C79.827,22.379,80.027,21.492,80.027,20.492 M86.174,20.492
			c0,1.867-0.431,3.583-1.292,5.149c-0.861,1.567-2.142,2.813-3.843,3.737c-1.703,0.922-3.774,1.384-6.218,1.384
			c-2.471,0-4.562-0.481-6.273-1.443c-1.711-0.961-2.982-2.226-3.815-3.792c-0.83-1.568-1.246-3.247-1.246-5.035
			c0-1.796,0.413-3.478,1.24-5.041c0.826-1.562,2.098-2.822,3.814-3.778c1.716-0.957,3.81-1.435,6.28-1.435
			c1.847,0,3.494,0.273,4.941,0.822c1.446,0.547,2.636,1.292,3.569,2.228c0.933,0.938,1.64,2.03,2.12,3.274
			C85.933,17.808,86.174,19.118,86.174,20.492"/>
		<path fill="#EB0029" d="M103.259,20.607c0-1.625-0.31-2.892-0.931-3.8c-0.62-0.909-1.366-1.516-2.235-1.825
			c-0.871-0.308-1.757-0.461-2.661-0.461h-2.568v11.841h2.568c1.576,0,2.941-0.375,4.096-1.125
			C102.682,24.487,103.259,22.945,103.259,20.607 M109.389,20.867c0,2.049-0.374,3.694-1.118,4.933
			c-0.745,1.242-1.622,2.246-2.633,3.014c-1.433,1.127-3.438,1.688-6.015,1.688H99.32H88.836v-19.99h8.307
			c1.25,0,2.32,0.065,3.209,0.195c0.891,0.13,1.689,0.314,2.401,0.548c0.713,0.237,1.317,0.501,1.817,0.793
			c0.5,0.293,0.947,0.61,1.342,0.946c0.682,0.558,1.281,1.216,1.795,1.975c0.516,0.76,0.923,1.64,1.226,2.64
			C109.237,18.608,109.389,19.694,109.389,20.867"/>
		<rect x="111.853" y="10.514" fill="#EB0029" width="6.028" height="19.989"/>
		<polygon fill="#EB0029" points="144.004,30.501 137.975,30.501 137.975,18.92 132.537,25.627 132.061,25.627 126.609,18.92 
			126.609,30.501 120.753,30.501 120.753,10.511 126.22,10.511 132.363,18.012 138.538,10.511 144.004,10.511 		"/>
		<path fill="#EB0029" d="M160.43,22.972l-2.927-7.296l-2.957,7.296H160.43z M169.618,30.501h-6.174l-1.629-4.052h-8.683
			l-1.658,4.052h-6.174l8.842-19.99h6.663L169.618,30.501z"/>
		<path fill="#EB0029" d="M188.028,29.002c-0.828,0.432-1.674,0.78-2.538,1.039c-0.865,0.26-1.738,0.445-2.619,0.555
			c-0.878,0.11-1.789,0.165-2.732,0.165c-1.74,0-3.302-0.239-4.681-0.72c-1.38-0.481-2.577-1.19-3.592-2.128
			c-1.014-0.937-1.774-2.034-2.279-3.288c-0.503-1.254-0.756-2.632-0.756-4.133c0-1.72,0.299-3.228,0.896-4.521
			c0.594-1.295,1.43-2.368,2.502-3.224c1.07-0.856,2.291-1.488,3.661-1.896c1.371-0.409,2.815-0.613,4.336-0.613
			c2.269,0,4.84,0.506,7.715,1.515v5.308c-0.989-0.615-1.968-1.127-2.935-1.537c-0.966-0.409-2.104-0.612-3.411-0.612
			c-1.164,0-2.25,0.23-3.259,0.693c-1.01,0.46-1.823,1.12-2.437,1.975c-0.616,0.855-0.924,1.855-0.924,3
			c0,1.009,0.269,1.934,0.808,2.776c0.538,0.842,1.285,1.51,2.242,2.004c0.957,0.497,2.036,0.744,3.238,0.744
			c0.971,0,1.89-0.118,2.755-0.354c0.864-0.236,1.593-0.498,2.184-0.785c0.593-0.29,1.201-0.63,1.826-1.024V29.002z"/>
		<path fill="#EB0029" d="M192.141,26.916v0.841h0.407c0.232,0,0.396-0.031,0.492-0.097c0.1-0.063,0.152-0.168,0.152-0.308
			c0-0.156-0.053-0.271-0.153-0.339c-0.109-0.069-0.281-0.097-0.511-0.097H192.141z M191.743,26.602h0.785
			c0.354,0,0.621,0.058,0.794,0.177c0.188,0.114,0.277,0.288,0.277,0.523c0,0.18-0.06,0.333-0.158,0.455
			c-0.101,0.12-0.242,0.194-0.427,0.221l0.566,1.167h-0.441l-0.508-1.121h-0.491v1.121h-0.397V26.602z"/>
		<path fill="#EB0029" d="M192.559,25.858c-0.318,0-0.628,0.072-0.895,0.205c-0.276,0.133-0.517,0.329-0.716,0.583
			c-0.144,0.18-0.25,0.384-0.328,0.6c-0.07,0.212-0.108,0.432-0.108,0.665c0,0.271,0.054,0.532,0.148,0.788
			c0.106,0.242,0.257,0.464,0.447,0.653c0.198,0.198,0.424,0.354,0.672,0.462c0.498,0.206,1.041,0.21,1.555,0
			c0.255-0.105,0.485-0.252,0.678-0.447c0.208-0.187,0.351-0.401,0.454-0.654c0.1-0.249,0.154-0.522,0.154-0.801
			c0-0.264-0.051-0.529-0.154-0.777c-0.099-0.249-0.246-0.468-0.439-0.663c-0.192-0.2-0.417-0.352-0.666-0.453
			C193.11,25.912,192.838,25.858,192.559,25.858 M192.559,30.35c-0.316,0-0.622-0.06-0.927-0.188
			c-0.294-0.129-0.562-0.314-0.791-0.537c-0.226-0.234-0.404-0.492-0.522-0.789c-0.126-0.301-0.184-0.608-0.184-0.926
			c0-0.273,0.042-0.534,0.128-0.79c0.089-0.259,0.222-0.495,0.392-0.711c0.234-0.299,0.514-0.53,0.843-0.685
			c0.599-0.296,1.364-0.325,2.008-0.059c0.295,0.125,0.562,0.302,0.786,0.542c0.234,0.222,0.404,0.489,0.526,0.783
			c0.12,0.294,0.183,0.605,0.183,0.919c0,0.33-0.066,0.648-0.185,0.944c-0.125,0.303-0.31,0.563-0.536,0.78
			c-0.229,0.224-0.499,0.403-0.798,0.527C193.185,30.29,192.875,30.35,192.559,30.35"/>
	</g>
	<g>
		<polygon fill="#1A171B" points="30.787,2.9 23.183,2.9 23.183,0 20.283,0 17.386,0 17.386,2.9 9.818,2.9 0,14.131 0,30.431 
			40.563,30.431 40.563,14.131 		"/>
		<rect x="2.896" y="17.033" fill="#EB0029" width="15.937" height="10.499"/>
		<rect x="21.73" y="17.033" fill="#FFFFFF" width="15.937" height="10.499"/>
		<polygon fill="#0071CE" points="36.949,14.114 29.676,5.77 14.464,5.769 21.768,14.114 		"/>
		<polygon fill="#FFDE00" points="18.118,14.125 10.984,5.747 3.656,14.125 		"/>
	</g>
</g>
</svg>
