<?xml version="1.0" encoding="utf-8"?>
<!-- Generator: Adobe Illustrator 16.0.0, SVG Export Plug-In . SVG Version: 6.00 Build 0)  -->
<svg version="1.2" baseProfile="tiny" id="Layer_1" xmlns="http://www.w3.org/2000/svg" xmlns:xlink="http://www.w3.org/1999/xlink"
	 x="0px" y="0px" width="126.679px" height="10px" viewBox="0 0 126.679 10" xml:space="preserve">
<g>
	<polygon fill="#888888" points="7.299,0.057 8.7,0.057 4.549,9.916 4.23,9.916 0,0.057 1.415,0.057 4.366,6.95 	"/>
	<polygon fill="#888888" points="9.774,0.057 15.339,0.057 15.339,1.308 11.18,1.308 11.18,4.301 15.199,4.301 15.199,5.56 
		11.18,5.56 11.18,8.608 15.473,8.608 15.473,9.859 9.774,9.859 	"/>
	<polygon fill="#888888" points="24.77,0.057 26.105,0.057 26.105,9.873 24.896,9.873 18.333,2.313 18.333,9.873 17.012,9.873 
		17.012,0.057 18.149,0.057 24.77,7.682 	"/>
	<polygon fill="#888888" points="27.37,0.043 35.569,0.043 35.569,1.293 32.148,1.293 32.148,9.873 30.735,9.873 30.735,1.293 
		27.37,1.293 	"/>
	<path fill="#888888" d="M40.657,5.714l-1.583-3.556l-1.469,3.556H40.657z M38.592,0h0.987l4.403,9.873h-1.439l-1.309-2.909h-4.188
		l-1.227,2.909h-1.444L38.592,0z"/>
	<polygon fill="#888888" points="53.186,9.873 45.842,9.873 45.842,0.134 53.067,0.134 53.067,2.088 48.779,2.088 48.779,3.872 
		52.87,3.872 52.87,5.833 48.779,5.833 48.779,7.912 53.186,7.912 	"/>
	<polygon fill="#888888" points="66.479,9.873 63.542,9.873 63.542,4.23 60.895,7.498 60.663,7.498 58.006,4.23 58.006,9.873 
		55.154,9.873 55.154,0.134 57.816,0.134 60.811,3.788 63.818,0.134 66.479,0.134 	"/>
	<path fill="#888888" d="M74.379,3.212c0-0.464-0.137-0.781-0.412-0.952c-0.275-0.171-0.764-0.257-1.472-0.257h-0.618V4.35h0.631
		c0.488,0,0.862-0.03,1.125-0.09c0.261-0.063,0.452-0.174,0.569-0.338S74.379,3.521,74.379,3.212 M77.372,3.197
		c0,0.362-0.062,0.714-0.187,1.058C77.062,4.6,76.861,4.92,76.584,5.218c-0.274,0.298-0.649,0.54-1.119,0.724
		c-0.472,0.186-1.026,0.277-1.664,0.277h-1.924v3.654H68.94V0.134h4.861c0.638,0,1.191,0.094,1.664,0.282
		c0.47,0.187,0.844,0.431,1.119,0.73c0.277,0.3,0.478,0.624,0.601,0.977C77.311,2.474,77.372,2.833,77.372,3.197"/>
	<path fill="#888888" d="M84.441,3.212c0-0.449-0.147-0.764-0.443-0.941c-0.296-0.178-0.775-0.268-1.44-0.268h-0.618v2.348h0.631
		c0.717,0,1.208-0.079,1.473-0.236C84.309,3.958,84.441,3.656,84.441,3.212 M88.433,9.873h-3.154l-0.767-1.729
		c-0.281-0.633-0.534-1.096-0.758-1.388c-0.226-0.292-0.445-0.48-0.658-0.563c-0.213-0.081-0.489-0.123-0.827-0.123h-0.329v3.802
		h-2.937V0.134h4.996c0.806,0,1.467,0.165,1.982,0.492c0.515,0.328,0.887,0.727,1.113,1.194c0.228,0.468,0.341,0.914,0.341,1.335
		c0,0.493-0.096,0.908-0.284,1.247c-0.189,0.341-0.39,0.587-0.601,0.742c-0.21,0.154-0.449,0.302-0.709,0.442
		c0.313,0.183,0.573,0.399,0.775,0.649c0.206,0.251,0.482,0.759,0.833,1.522L88.433,9.873z"/>
	<polygon fill="#888888" points="97.111,9.873 89.767,9.873 89.767,0.134 96.992,0.134 96.992,2.088 92.704,2.088 92.704,3.872 
		96.795,3.872 96.795,5.833 92.704,5.833 92.704,7.912 97.111,7.912 	"/>
	<path fill="#888888" d="M105.886,7.041c0,0.608-0.154,1.137-0.466,1.581c-0.312,0.445-0.747,0.786-1.305,1.023
		C103.558,9.881,102.92,10,102.198,10c-0.203,0-0.449-0.013-0.741-0.039c-0.294-0.026-0.683-0.098-1.168-0.214
		C99.806,9.63,99.3,9.456,98.776,9.227V6.838c0.491,0.305,0.975,0.558,1.45,0.759c0.477,0.202,0.985,0.302,1.529,0.302
		c0.501,0,0.825-0.082,0.973-0.249c0.146-0.166,0.221-0.322,0.221-0.467c0-0.263-0.127-0.484-0.378-0.664
		c-0.254-0.181-0.622-0.367-1.104-0.559c-0.534-0.226-1.002-0.471-1.405-0.734C99.66,4.96,99.33,4.629,99.075,4.23
		c-0.256-0.397-0.382-0.869-0.382-1.412c0-0.524,0.128-0.999,0.387-1.423c0.256-0.424,0.65-0.763,1.179-1.015
		c0.53-0.254,1.176-0.381,1.94-0.381c0.542,0,1.045,0.053,1.508,0.159c0.46,0.105,0.84,0.224,1.141,0.354
		c0.3,0.132,0.507,0.234,0.618,0.311v2.283c-0.397-0.285-0.843-0.541-1.332-0.767c-0.49-0.224-1.012-0.337-1.57-0.337
		c-0.365,0-0.63,0.07-0.794,0.211s-0.246,0.313-0.246,0.521c0,0.191,0.082,0.357,0.246,0.499c0.164,0.141,0.457,0.311,0.878,0.513
		c0.75,0.351,1.35,0.667,1.8,0.949c0.449,0.281,0.802,0.605,1.057,0.973C105.76,6.036,105.886,6.493,105.886,7.041"/>
	<path fill="#888888" d="M114.102,6.205l-1.427-3.556l-1.439,3.556H114.102z M118.577,9.873h-3.007l-0.793-1.975h-4.231
		l-0.808,1.975h-3.007l4.308-9.739h3.245L118.577,9.873z"/>
	<path fill="#888888" d="M126.68,7.041c0,0.608-0.156,1.137-0.47,1.581c-0.31,0.445-0.744,0.786-1.302,1.023
		C124.351,9.881,123.711,10,122.991,10c-0.201,0-0.449-0.013-0.742-0.039s-0.683-0.098-1.165-0.214
		c-0.486-0.117-0.991-0.291-1.516-0.521V6.838c0.492,0.305,0.977,0.558,1.451,0.759c0.475,0.202,0.983,0.302,1.528,0.302
		c0.501,0,0.826-0.082,0.973-0.249c0.148-0.166,0.223-0.322,0.223-0.467c0-0.263-0.127-0.484-0.381-0.664
		c-0.254-0.181-0.62-0.367-1.104-0.559c-0.532-0.226-1.002-0.471-1.403-0.734c-0.404-0.266-0.734-0.597-0.988-0.995
		c-0.256-0.397-0.383-0.869-0.383-1.412c0-0.524,0.129-0.999,0.386-1.423s0.651-0.763,1.182-1.015
		C121.581,0.127,122.227,0,122.991,0c0.543,0,1.043,0.053,1.506,0.159c0.463,0.105,0.844,0.224,1.144,0.354
		c0.298,0.132,0.505,0.234,0.618,0.311v2.283c-0.398-0.285-0.842-0.541-1.332-0.767c-0.49-0.224-1.014-0.337-1.569-0.337
		c-0.366,0-0.632,0.07-0.796,0.211s-0.246,0.313-0.246,0.521c0,0.191,0.082,0.357,0.246,0.499c0.164,0.141,0.458,0.311,0.88,0.513
		c0.748,0.351,1.349,0.667,1.798,0.949c0.45,0.281,0.803,0.605,1.059,0.973C126.551,6.036,126.68,6.493,126.68,7.041"/>
</g>
</svg>
