<?xml version="1.0" encoding="utf-8"?>
<!-- Generator: Adobe Illustrator 16.0.0, SVG Export Plug-In . SVG Version: 6.00 Build 0)  -->
<svg version="1.2" baseProfile="tiny" id="Layer_1" xmlns="http://www.w3.org/2000/svg" xmlns:xlink="http://www.w3.org/1999/xlink"
	 x="0px" y="0px" width="45.152px" height="10px" viewBox="0 0 45.152 10" xml:space="preserve">
<g>
	<path fill="#888888" d="M43.666,5.959h-0.92V5.615h-0.803v0.344h-1.042l-1.594,1.606v2.405h5.845V7.565L43.666,5.959z
		 M44.809,9.626h-2.292V8.022h2.292V9.626z"/>
	<polygon fill="#AAAAAA" points="39.858,7.563 41.947,7.563 40.901,6.482 	"/>
	<polygon fill="#666666" points="41.302,6.418 42.439,7.563 44.714,7.563 43.577,6.418 	"/>
	<rect x="39.767" y="8.022" fill="#AAAAAA" width="2.292" height="1.604"/>
	<path fill="#888888" d="M8.251,0H6.048C5.629,0,5.29,0.387,5.29,0.82l0.002,1.242H3.748L3.75,0.82C3.75,0.387,3.41,0,2.992,0H0.812
		C0.393,0,0,0.373,0,0.807v8.397c0,0.435,0.393,0.767,0.812,0.767h2.181c0.418,0,0.758-0.364,0.758-0.798L3.748,8.137h1.544
		L5.29,9.173c0,0.434,0.339,0.798,0.758,0.798h2.179c0.419,0,0.712-0.332,0.712-0.767V0.807C8.938,0.373,8.646,0,8.227,0"/>
	<path fill="#888888" d="M30.004,0.796c-0.013-0.424-0.358-0.766-0.771-0.766c-0.193,0-0.374,0.076-0.509,0.201l-3.338,3.098
		c-0.041,0.044-0.099,0.073-0.163,0.073s-0.122-0.029-0.164-0.073l-3.335-3.098c-0.133-0.125-0.31-0.201-0.504-0.201
		c-0.414,0-0.721,0.342-0.733,0.766c0,0.003,0.026,0.005,0.026,0.009v8.399c0,0.435,0.285,0.767,0.704,0.767h1.894
		c0.419,0,0.726-0.332,0.726-0.767V8.398V8.397V8.393c0-0.131,0.119-0.237,0.245-0.237c0.087,0,0.172,0.054,0.207,0.128
		c0.019,0.027,0.723,1.289,0.723,1.289l0.004,0.002l0.001,0.004c0.007,0.016,0.02,0.029,0.027,0.043
		c0.005,0.005,0.007,0.008,0.009,0.011c0.006,0.007,0.01,0.01,0.018,0.016c0.004,0.005,0.007,0.007,0.014,0.013
		c0.005,0.004,0.01,0.007,0.014,0.013c0.011,0.007,0.021,0.013,0.031,0.016c0.006,0.001,0.007,0.003,0.011,0.005
		C25.15,9.697,25.16,9.7,25.168,9.702c0.006,0.001,0.007,0.001,0.012,0.004c0.014,0.002,0.027,0.005,0.043,0.005
		c0.014,0,0.026-0.003,0.039-0.005c0.005-0.003,0.008-0.003,0.013-0.004c0.01-0.002,0.02-0.003,0.028-0.009
		c0.005-0.002,0.008-0.004,0.012-0.005c0.011-0.003,0.022-0.009,0.031-0.016c0.006-0.006,0.01-0.009,0.014-0.013
		c0.005-0.006,0.011-0.008,0.014-0.013c0.008-0.006,0.012-0.009,0.018-0.016c0.004-0.003,0.006-0.006,0.008-0.011
		c0.01-0.014,0.019-0.027,0.027-0.043l0.001-0.004l0.002-0.002c0,0,0.7-1.262,0.715-1.289c0.04-0.074,0.12-0.128,0.209-0.128
		c0.128,0,0.234,0.106,0.234,0.237v0.005v0.001v0.806c0,0.435,0.328,0.767,0.744,0.767h0.001h1.894c0.418,0,0.8-0.332,0.8-0.767
		V0.805C30.025,0.801,30.004,0.799,30.004,0.796"/>
	<path fill="#888888" d="M39.586,0.799c0-0.435-0.34-0.799-0.759-0.799h-0.008h-2.153c-0.283,0-0.567,0.186-0.682,0.424v0.001
		l0.009,0.004c-0.001,0.003,0.004,0.005,0.001,0.009l-0.542,0.97c-0.026,0.064-0.077,0.113-0.141,0.135L35.31,1.544
		c-0.011,0.003-0.018,0.005-0.026,0.005L35.28,1.551c-0.014,0.002-0.024,0.005-0.036,0.005c-0.013,0-0.026-0.003-0.038-0.005
		c-0.001-0.002-0.003-0.002-0.003-0.002c-0.01,0-0.018-0.002-0.024-0.005c-0.002-0.001-0.005-0.001-0.005-0.001
		c-0.064-0.022-0.117-0.071-0.142-0.136l-0.546-0.97c-0.001-0.004,0.005-0.006,0.004-0.009l0.004-0.004V0.424
		C34.38,0.186,34.104,0,33.821,0h-0.002h-0.139h-2.015h-0.008c-0.417,0-0.756,0.364-0.756,0.799c0,0.179,0.071,0.322,0.127,0.42
		l2.893,4.687v0.824v2.475c0,0.435,0.293,0.767,0.712,0.767h1.22c0.419,0,0.704-0.332,0.704-0.767V6.729V5.905l2.898-4.687
		C39.508,1.121,39.586,0.978,39.586,0.799"/>
	<path fill="#888888" d="M14.723,6.689c-0.896,0-1.621-0.753-1.621-1.681c0-0.927,0.726-1.677,1.621-1.677
		c0.896,0,1.622,0.75,1.622,1.677C16.345,5.937,15.619,6.689,14.723,6.689 M14.723,0.021c-2.663,0-4.821,2.232-4.821,4.988
		C9.901,7.766,12.06,10,14.723,10s4.819-2.234,4.819-4.991C19.542,2.253,17.386,0.021,14.723,0.021"/>
</g>
</svg>
