<?xml version="1.0" encoding="utf-8"?>
<!-- Generator: Adobe Illustrator 16.0.0, SVG Export Plug-In . SVG Version: 6.00 Build 0)  -->
<svg version="1.2" baseProfile="tiny" id="Layer_1" xmlns="http://www.w3.org/2000/svg" xmlns:xlink="http://www.w3.org/1999/xlink"
	 x="0px" y="0px" width="562px" height="25px" viewBox="0 0 562 25" xml:space="preserve">
<g>
	<path fill="#888888" d="M13.887,7.946c0.226-1.014,0.435-1.899,1.208-2.64c0.527-0.512,1.217-0.802,1.952-0.806
		c0,0,0.287,0.002,0.469,0.028L17.461,4.91c0,0-0.395-0.056-0.636,0c-0.316,0.075-0.499,0.206-0.718,0.425
		c-0.402,0.402-0.547,0.873-0.804,1.967l-0.814,3.624h2.036L16.4,11.409H14.38l-1.27,5.646c-0.226,1.014-0.435,1.898-1.208,2.639
		c-0.531,0.515-1.224,0.806-1.963,0.806l-0.253-0.005l0.135-0.414c0.077,0.002,0.163,0,0.232-0.01
		c0.406-0.059,0.671-0.2,0.909-0.505c0.382-0.487,0.473-0.773,0.73-1.867l1.415-6.29h-2.003l0.124-0.483h1.987L13.887,7.946z"/>
	<path fill="#888888" d="M40.53,10.724c-1.517,0-2.866,1.026-3.183,2.64c-0.535,2.726,1.488,3.25,2.34,3.25
		c0.732,0,1.307-0.255,1.745-0.579l-0.386-0.448c-0.308,0.188-0.666,0.327-1.063,0.327c-1.412,0-1.61-1.2-1.537-2.04h4.053
		C42.914,12.494,42.467,10.724,40.53,10.724z M41.447,13.232h-2.889c0.192-0.745,0.803-1.913,1.868-1.913
		C41.584,11.32,41.616,12.487,41.447,13.232z"/>
	<path fill="#888888" d="M23.908,6.63c0,0-1.702,7.312-1.85,8.179c-0.229,1.361,0.475,1.555,0.853,1.611
		c0.691,0.104,1.15-0.012,1.15-0.012l0.071-0.454c0,0-0.262,0.085-0.568,0.029c-0.44-0.079-0.493-0.334-0.384-1.059
		c0.131-0.861,1.921-8.295,1.921-8.295H23.908z"/>
	<path fill="#888888" d="M44.942,6.63c0,0-1.703,7.312-1.849,8.179c-0.229,1.361,0.474,1.555,0.851,1.611
		c0.691,0.104,1.15-0.012,1.15-0.012l0.072-0.454c0,0-0.262,0.085-0.568,0.029c-0.44-0.079-0.494-0.334-0.384-1.059
		c0.131-0.861,1.921-8.295,1.921-8.295H44.942z"/>
	<path fill="#888888" d="M47.545,6.63c0,0-1.702,7.312-1.849,8.179c-0.229,1.361,0.474,1.555,0.852,1.611
		c0.691,0.104,1.15-0.012,1.15-0.012l0.071-0.454c0,0-0.261,0.085-0.567,0.029c-0.44-0.079-0.494-0.334-0.384-1.059
		c0.131-0.861,1.92-8.295,1.92-8.295H47.545z"/>
	<path fill="#888888" d="M20.531,10.873l-0.135,0.575H20.36c-0.307-0.572-0.854-0.744-1.426-0.744c-1.725,0-2.712,1.429-3.002,2.799
		c-0.416,1.961,0.174,3.083,1.803,3.083c0.709,0,1.243-0.177,1.933-0.815l0.302,0.639h0.578l1.196-5.536H20.531z M19.856,14.04
		c-0.133,0.452-0.677,2.043-1.948,2.043c-1.521,0-0.775-2.304-0.658-2.745s0.669-2.078,1.894-2.078
		C20.634,11.26,19.988,13.587,19.856,14.04z"/>
	<path fill="#888888" d="M29.642,10.873l-0.135,0.575H29.47c-0.306-0.572-0.852-0.744-1.425-0.744c-1.725,0-2.712,1.429-3.002,2.799
		c-0.416,1.961,0.174,3.083,1.804,3.083c0.708,0,1.241-0.177,1.933-0.815l0.301,0.639h0.577l1.197-5.536H29.642z M28.967,14.04
		c-0.133,0.452-0.677,2.043-1.948,2.043c-1.521,0-0.776-2.304-0.659-2.745s0.67-2.078,1.896-2.078
		C29.743,11.26,29.099,13.587,28.967,14.04z"/>
	<path fill="#888888" d="M53.101,10.873l-0.136,0.575h-0.036c-0.306-0.572-0.853-0.744-1.425-0.744
		c-1.725,0-2.713,1.429-3.003,2.799c-0.415,1.961,0.174,3.083,1.804,3.083c0.708,0,1.242-0.177,1.933-0.815l0.302,0.639h0.577
		l1.197-5.536H53.101z M52.426,14.04c-0.134,0.452-0.677,2.043-1.948,2.043c-1.521,0-0.776-2.304-0.659-2.745
		s0.67-2.078,1.895-2.078C53.202,11.26,52.558,13.587,52.426,14.04z"/>
	<path fill="#888888" d="M34.828,10.749c-0.671,0-1.388,0.293-1.748,0.807l-0.041,0.002l1.133-4.928h-1.255
		c0,0-1.753,7.598-2.243,9.822h0.701l0.573-0.637c0.42,0.639,0.878,0.815,1.587,0.815c1.63,0,2.695-1.122,3.109-3.082
		C36.936,12.178,36.553,10.749,34.828,10.749z M35.263,14.085c-0.119,0.453-0.668,2.043-1.809,2.043
		c-1.364,0-0.913-2.304-0.799-2.745c0.185-0.715,0.587-2.027,1.716-2.027C35.909,11.356,35.381,13.632,35.263,14.085z"/>
</g>
<g>
	<g>
		<path fill="#888888" d="M82.459,15.19l0.005-0.004C82.465,15.187,82.462,15.184,82.459,15.19z"/>
		<path fill="#888888" d="M99.503,16.144l0.074-0.074L99.503,16.144l-2.413-2.41l0.192-0.04c1.297-0.27,2.165-1.09,2.17-2.663
			c-0.001-1.835-1.536-2.851-3.072-2.855h-3.204l0,0.001c-0.039,0.003-0.07,0.01-0.089,0.022c-0.024,0.014-0.034,0.051-0.034,0.109
			v0.961h0.001v7.036l0.001-0.001c0.009,0.055,0.023,0.089,0.048,0.1c0.025,0.012,0.063,0.015,0.112,0.008l0.017-0.002v0.002
			l1.332-0.194c0.026-0.003,0.049-0.009,0.064-0.019c0.024-0.015,0.034-0.052,0.034-0.11v-0.96h-0.001V9.747h1.781
			c0.771,0.001,1.434,0.546,1.437,1.271c0.004,0.721-0.536,1.093-1.297,1.276c-0.776,0.2-1.127,0.74-1.13,1.326
			c0,0.369,0.145,0.757,0.433,1.084c0.282,0.349,0.443,0.492,0.449,0.498l2.131,2.167c0.125,0.078,0.272,0.13,0.446,0.13
			c0.445-0.002,0.818-0.363,0.818-0.807C99.73,16.439,99.625,16.266,99.503,16.144z"/>
		<path fill="#888888" d="M91.012,7.861c-0.663,0-1.043,0.471-1.336,1.091l-1.819,3.875c0,0-0.015,0.046-0.044,0.046
			c-0.03,0-0.053-0.046-0.053-0.046l-1.553-2.65l0.001-0.001l-0.482-0.822c-0.028-0.048-0.055-0.073-0.083-0.076
			c-0.03-0.006-0.047-0.002-0.047-0.002c-0.001,0.001-2.118,0.301-2.118,0.301v0.002c-0.024,0.004-0.046,0.01-0.061,0.019
			c-0.024,0.015-0.034,0.052-0.034,0.11v0.96h0.001v6.022c0,0.435,0.368,0.791,0.806,0.792c0.437-0.001,0.804-0.357,0.805-0.792
			v-5.37l2.811,4.696c0,0,0.014,0.029,0.041,0.029c0.026,0,0.037-0.029,0.037-0.029l2.736-5.558v6.207l0.004-0.002
			c0.008,0.054,0.022,0.088,0.048,0.099c0.022,0.011,0.057,0.013,0.098,0.009l0,0.001l0.012-0.001c0.001,0,0.001,0,0.002,0
			l1.341-0.19l-0.002-0.003c0.031-0.004,0.057-0.01,0.074-0.021c0.023-0.014,0.032-0.048,0.033-0.101h0.002V9.081
			C92.23,8.417,91.674,7.863,91.012,7.861z"/>
	</g>
	<path fill="#888888" d="M82.204,14.063c-0.139-0.089-0.294-0.134-0.449-0.134c-0.225,0.001-0.438,0.094-0.581,0.251
		c-0.049,0.055-0.155,0.153-0.191,0.191c-0.56,0.517-1.285,0.803-2.045,0.803c-1.664,0-3.019-1.354-3.019-3.019
		s1.354-3.018,3.019-3.018c0.548,0.004,1.308,0.102,1.969,0.733c0,0,0.013,0.012,0.02,0.016c0.02,0.016,0.06,0.019,0.115,0.01
		l1.422-0.208c0.141-0.021,0.07-0.133,0.07-0.133c-0.25-0.461-1.304-2.081-3.743-2.057c-2.574,0.025-4.498,2.048-4.522,4.677
		c0.005,2.573,2.095,4.662,4.668,4.667c1.73,0,2.862-0.913,3.384-1.457c0,0,0.266-0.306,0.257-0.646
		C82.573,14.464,82.431,14.211,82.204,14.063z"/>
</g>
<g>
	<path fill="#888887" d="M129.58,19.804c-2.461,0-9.579-1.989-9.579-4.451c0-2.458,7.118-4.451,9.579-4.451
		c2.458,0,4.451,1.992,4.451,4.451C134.031,17.814,132.038,19.804,129.58,19.804"/>
	<path fill="#A8A9A9" d="M127.386,12.576c-1.601-0.97-5.445-5.084-4.475-6.682s6.393-0.084,7.991,0.891
		c1.602,0.969,2.111,3.054,1.139,4.653C131.07,13.04,128.987,13.551,127.386,12.576"/>
	<path fill="#666666" d="M126.048,11.509c0.513,0.472,0.988,0.856,1.352,1.076c1.555,0.944,3.554,0.489,4.565-0.995
		c-0.685-0.43-1.492-0.688-2.361-0.688C128.788,10.902,127.462,11.124,126.048,11.509"/>
	<path fill="#888887" d="M139.985,14.306c0-0.281-0.088-0.51-0.265-0.687c-0.179-0.181-0.441-0.267-0.783-0.267h-1.449v1.902h1.438
		c0.21,0,0.382-0.03,0.519-0.091c0.133-0.06,0.241-0.143,0.321-0.233c0.082-0.093,0.139-0.195,0.171-0.309
		C139.969,14.508,139.985,14.403,139.985,14.306 M137.488,12.47h1.415c0.081,0,0.169-0.012,0.266-0.033
		c0.096-0.017,0.185-0.057,0.265-0.109c0.084-0.061,0.149-0.136,0.202-0.229c0.053-0.098,0.079-0.223,0.079-0.379
		c0-0.21-0.068-0.375-0.203-0.498c-0.14-0.122-0.323-0.183-0.558-0.183h-1.466V12.47z M140.13,12.863
		c0.164,0.062,0.307,0.15,0.431,0.253c0.122,0.111,0.224,0.231,0.297,0.366c0.078,0.137,0.133,0.277,0.172,0.43
		c0.037,0.148,0.056,0.304,0.056,0.461c0,0.274-0.053,0.524-0.161,0.752s-0.254,0.423-0.438,0.58
		c-0.184,0.165-0.397,0.291-0.646,0.378c-0.249,0.086-0.513,0.131-0.8,0.131h-2.129c-0.187,0-0.315-0.037-0.384-0.119
		c-0.071-0.075-0.106-0.202-0.106-0.377v-5.123c0-0.172,0.035-0.295,0.106-0.378c0.068-0.084,0.197-0.123,0.384-0.123l2.024-0.008
		c0.266,0,0.521,0.026,0.751,0.087c0.234,0.059,0.432,0.147,0.597,0.27c0.167,0.122,0.299,0.28,0.396,0.474
		c0.094,0.19,0.144,0.418,0.144,0.688c0,0.262-0.067,0.495-0.196,0.711c-0.131,0.214-0.296,0.376-0.497,0.484V12.863z"/>
	<path fill="#888887" d="M144.131,14.067h-0.838c-0.097,0-0.206,0.006-0.318,0.016c-0.113,0.014-0.221,0.043-0.323,0.098
		c-0.101,0.05-0.186,0.128-0.251,0.229c-0.07,0.098-0.102,0.23-0.102,0.41c0,0.247,0.084,0.422,0.252,0.519
		c0.167,0.103,0.394,0.151,0.672,0.151c0.042,0,0.097,0,0.172-0.007c0.071,0,0.151-0.005,0.232-0.019
		c0.082-0.011,0.167-0.026,0.256-0.045c0.09-0.016,0.173-0.039,0.248-0.067V14.067z M145.162,15.718c0,0.14-0.056,0.235-0.166,0.29
		c-0.129,0.056-0.266,0.105-0.413,0.146c-0.15,0.042-0.302,0.073-0.459,0.096c-0.158,0.021-0.314,0.036-0.465,0.044
		c-0.155,0.014-0.304,0.018-0.443,0.018c-0.385,0-0.702-0.04-0.954-0.116c-0.256-0.082-0.456-0.185-0.605-0.319
		c-0.147-0.127-0.251-0.281-0.308-0.461c-0.06-0.177-0.09-0.364-0.09-0.562c0-0.202,0.032-0.401,0.104-0.589
		c0.063-0.185,0.177-0.354,0.326-0.499c0.151-0.144,0.347-0.258,0.587-0.344c0.244-0.087,0.539-0.132,0.889-0.132h0.976v-0.148
		c0-0.11-0.009-0.214-0.034-0.305c-0.02-0.094-0.069-0.175-0.137-0.246c-0.065-0.067-0.154-0.124-0.271-0.163
		c-0.117-0.036-0.268-0.055-0.456-0.055c-0.195,0-0.413,0.019-0.648,0.055c-0.231,0.036-0.419,0.071-0.566,0.12
		c-0.063,0.019-0.108,0.019-0.14,0.01c-0.026-0.013-0.048-0.045-0.06-0.094l-0.123-0.503c-0.023-0.088,0.003-0.15,0.079-0.181
		c0.243-0.095,0.512-0.16,0.804-0.195c0.289-0.04,0.564-0.058,0.818-0.058c0.605,0,1.049,0.132,1.333,0.399
		c0.28,0.27,0.423,0.657,0.423,1.17V15.718z"/>
	<path fill="#888887" d="M147.475,12.402c-0.063,0-0.156,0-0.274,0.001c-0.119,0.007-0.257,0.021-0.414,0.049v3.617
		c0,0.062-0.013,0.102-0.036,0.123c-0.021,0.013-0.066,0.022-0.131,0.022h-0.683c-0.057,0-0.097-0.01-0.123-0.022
		c-0.028-0.021-0.04-0.062-0.04-0.123v-3.738c0-0.211,0.037-0.373,0.114-0.49c0.072-0.113,0.23-0.196,0.468-0.235
		c0.06-0.007,0.138-0.015,0.237-0.027c0.096-0.011,0.203-0.021,0.313-0.024c0.111-0.008,0.217-0.016,0.323-0.02
		c0.104-0.004,0.191-0.007,0.271-0.007c0.381,0,0.715,0.04,0.995,0.123c0.28,0.08,0.515,0.209,0.698,0.388
		c0.182,0.177,0.316,0.408,0.403,0.695c0.088,0.282,0.132,0.628,0.132,1.032v2.304c0,0.062-0.013,0.102-0.035,0.123
		c-0.022,0.013-0.065,0.022-0.128,0.022h-0.686c-0.057,0-0.1-0.01-0.127-0.022c-0.022-0.021-0.038-0.062-0.038-0.123v-2.325
		c0-0.228-0.021-0.427-0.06-0.592c-0.034-0.169-0.101-0.308-0.191-0.418c-0.094-0.116-0.22-0.195-0.383-0.252
		C147.922,12.427,147.722,12.402,147.475,12.402"/>
	<path fill="#888887" d="M152.35,15.42c0.182,0,0.372-0.023,0.555-0.067c0.19-0.046,0.344-0.101,0.464-0.161
		c0.065-0.027,0.11-0.037,0.134-0.023c0.029,0.011,0.053,0.039,0.067,0.087l0.221,0.503c0.056,0.095,0.037,0.169-0.056,0.22
		c-0.238,0.136-0.496,0.225-0.772,0.267c-0.273,0.042-0.533,0.067-0.771,0.067c-0.654,0-1.151-0.198-1.497-0.594
		c-0.35-0.398-0.521-0.982-0.521-1.763c0-0.369,0.046-0.7,0.148-1.001c0.098-0.3,0.241-0.555,0.424-0.769
		c0.182-0.213,0.403-0.375,0.663-0.487c0.257-0.113,0.551-0.171,0.88-0.171c0.236,0,0.466,0.021,0.69,0.071
		c0.226,0.052,0.438,0.132,0.633,0.234c0.054,0.03,0.085,0.058,0.098,0.085c0.011,0.031,0.004,0.073-0.025,0.131l-0.221,0.518
		c-0.022,0.047-0.047,0.075-0.072,0.086c-0.026,0.013-0.074,0.005-0.144-0.025c-0.142-0.051-0.286-0.097-0.437-0.133
		c-0.155-0.042-0.313-0.058-0.479-0.058c-0.199,0-0.369,0.04-0.512,0.126c-0.143,0.083-0.261,0.196-0.35,0.332
		c-0.092,0.143-0.157,0.305-0.196,0.486c-0.041,0.187-0.062,0.374-0.062,0.575c0,0.202,0.017,0.397,0.054,0.57
		c0.037,0.18,0.094,0.331,0.179,0.468c0.084,0.132,0.198,0.239,0.342,0.316C151.935,15.383,152.121,15.42,152.35,15.42"/>
	<path fill="#888887" d="M157.153,13.931c0-0.214-0.018-0.415-0.05-0.603c-0.032-0.187-0.088-0.351-0.167-0.492
		c-0.076-0.145-0.185-0.261-0.326-0.338c-0.134-0.083-0.305-0.124-0.516-0.124c-0.185,0-0.35,0.038-0.489,0.119
		c-0.141,0.079-0.255,0.187-0.35,0.314c-0.093,0.139-0.159,0.299-0.207,0.488c-0.043,0.187-0.063,0.391-0.063,0.604
		c0,0.488,0.077,0.87,0.236,1.151c0.158,0.271,0.437,0.414,0.838,0.414c0.202,0,0.375-0.043,0.515-0.128
		c0.142-0.085,0.251-0.198,0.335-0.339c0.086-0.142,0.144-0.303,0.186-0.488C157.131,14.328,157.153,14.13,157.153,13.931
		 M158.189,13.899c0,0.777-0.178,1.373-0.537,1.79c-0.354,0.416-0.892,0.622-1.6,0.622c-0.707,0-1.231-0.203-1.577-0.608
		c-0.348-0.403-0.522-0.995-0.522-1.772c0-0.389,0.052-0.729,0.158-1.025c0.104-0.297,0.252-0.548,0.438-0.756
		c0.187-0.198,0.407-0.356,0.669-0.465c0.259-0.106,0.548-0.158,0.858-0.158c0.691,0,1.222,0.211,1.576,0.632
		C158.011,12.578,158.189,13.161,158.189,13.899"/>
	<g>
		<path fill="#A8A9A9" d="M167.617,14.082h-0.846c-0.1,0-0.207,0.002-0.318,0.017c-0.122,0.012-0.226,0.046-0.329,0.096
			c-0.102,0.058-0.188,0.13-0.256,0.226c-0.064,0.106-0.1,0.242-0.1,0.418c0,0.25,0.086,0.43,0.254,0.527
			c0.168,0.103,0.396,0.155,0.679,0.155c0.038,0,0.096-0.003,0.171-0.008c0.072-0.005,0.153-0.012,0.232-0.021
			c0.084-0.012,0.169-0.027,0.261-0.047c0.093-0.018,0.177-0.04,0.252-0.066V14.082z M168.656,15.748
			c0,0.142-0.056,0.233-0.169,0.291c-0.129,0.059-0.269,0.11-0.414,0.148c-0.155,0.041-0.309,0.076-0.465,0.094
			c-0.158,0.022-0.314,0.041-0.469,0.053c-0.158,0.007-0.307,0.011-0.446,0.011c-0.389,0-0.712-0.041-0.965-0.116
			c-0.261-0.079-0.459-0.187-0.607-0.317c-0.15-0.136-0.257-0.291-0.313-0.472c-0.058-0.177-0.09-0.366-0.09-0.562
			c0-0.212,0.037-0.406,0.104-0.599c0.064-0.188,0.176-0.356,0.327-0.505c0.16-0.141,0.355-0.256,0.598-0.348
			c0.245-0.09,0.543-0.129,0.892-0.129h0.988v-0.15c0-0.107-0.014-0.215-0.033-0.31c-0.027-0.089-0.073-0.173-0.139-0.245
			c-0.07-0.07-0.159-0.124-0.275-0.159c-0.121-0.041-0.271-0.061-0.461-0.061c-0.201,0-0.417,0.016-0.65,0.055
			c-0.236,0.032-0.423,0.074-0.574,0.122c-0.063,0.017-0.112,0.017-0.137,0.013c-0.029-0.013-0.048-0.048-0.063-0.103l-0.124-0.499
			c-0.022-0.098,0-0.159,0.077-0.185c0.246-0.092,0.518-0.163,0.813-0.202c0.293-0.036,0.567-0.055,0.826-0.055
			c0.61,0,1.057,0.133,1.342,0.405c0.287,0.27,0.429,0.664,0.429,1.181V15.748z"/>
		<path fill="#A8A9A9" d="M174.188,14.082h-0.844c-0.102,0-0.213,0.002-0.326,0.017c-0.11,0.012-0.22,0.046-0.323,0.096
			c-0.101,0.058-0.189,0.13-0.258,0.226c-0.067,0.106-0.098,0.242-0.098,0.418c0,0.25,0.082,0.43,0.257,0.527
			c0.166,0.103,0.392,0.155,0.676,0.155c0.043,0,0.096-0.003,0.172-0.008c0.071-0.005,0.15-0.012,0.231-0.021
			c0.085-0.012,0.168-0.027,0.26-0.047c0.093-0.018,0.176-0.04,0.253-0.066V14.082z M175.224,15.748
			c0,0.142-0.054,0.233-0.169,0.291c-0.125,0.059-0.264,0.11-0.414,0.148c-0.149,0.041-0.303,0.076-0.464,0.094
			c-0.157,0.022-0.313,0.041-0.47,0.053c-0.155,0.007-0.304,0.011-0.442,0.011c-0.391,0-0.712-0.041-0.968-0.116
			c-0.257-0.079-0.457-0.187-0.607-0.317c-0.151-0.136-0.253-0.291-0.314-0.472c-0.057-0.177-0.087-0.366-0.087-0.562
			c0-0.212,0.032-0.406,0.104-0.599c0.069-0.188,0.175-0.356,0.328-0.505c0.154-0.141,0.352-0.256,0.592-0.348
			c0.246-0.09,0.545-0.129,0.897-0.129h0.985v-0.15c0-0.107-0.01-0.215-0.037-0.31c-0.021-0.089-0.068-0.173-0.131-0.245
			c-0.068-0.07-0.163-0.124-0.281-0.159c-0.116-0.041-0.271-0.061-0.458-0.061c-0.2,0-0.418,0.016-0.651,0.055
			c-0.233,0.032-0.425,0.074-0.571,0.122c-0.063,0.017-0.11,0.017-0.139,0.013c-0.029-0.013-0.052-0.048-0.064-0.103l-0.122-0.499
			c-0.025-0.098,0.001-0.159,0.08-0.185c0.245-0.092,0.517-0.163,0.809-0.202c0.293-0.036,0.569-0.055,0.83-0.055
			c0.609,0,1.057,0.133,1.338,0.405c0.288,0.27,0.428,0.664,0.428,1.181V15.748z"/>
		<path fill="#A8A9A9" d="M182.419,12.373c-0.152,0-0.297,0.03-0.419,0.09c-0.125,0.066-0.232,0.148-0.316,0.251
			c-0.086,0.109-0.161,0.229-0.217,0.365c-0.052,0.134-0.076,0.274-0.083,0.422h2.024c0-0.163-0.014-0.302-0.047-0.436
			c-0.027-0.138-0.077-0.257-0.151-0.36c-0.073-0.104-0.174-0.183-0.295-0.245C182.785,12.403,182.621,12.373,182.419,12.373
			 M182.406,11.519c0.673,0,1.179,0.176,1.501,0.519c0.326,0.35,0.488,0.82,0.488,1.427c0,0.153-0.019,0.278-0.057,0.378
			c-0.032,0.101-0.083,0.18-0.146,0.239c-0.061,0.058-0.142,0.101-0.224,0.121c-0.086,0.026-0.178,0.036-0.28,0.036h-2.339
			c0.005,0.232,0.042,0.419,0.106,0.58c0.061,0.157,0.15,0.276,0.263,0.375c0.109,0.096,0.238,0.168,0.383,0.207
			c0.148,0.041,0.312,0.063,0.48,0.063c0.187,0,0.37-0.024,0.556-0.069c0.179-0.047,0.338-0.104,0.475-0.169
			c0.09-0.035,0.156-0.025,0.193,0.055l0.236,0.499c0.043,0.101,0.02,0.163-0.06,0.202c-0.222,0.138-0.465,0.231-0.733,0.282
			c-0.261,0.053-0.515,0.081-0.756,0.081c-0.711,0-1.256-0.187-1.629-0.575c-0.377-0.375-0.565-0.981-0.565-1.809
			c0-0.391,0.055-0.734,0.16-1.04c0.104-0.303,0.251-0.56,0.433-0.764c0.191-0.212,0.41-0.366,0.669-0.474
			C181.819,11.574,182.101,11.519,182.406,11.519"/>
		<path fill="#A8A9A9" d="M191.961,14.082h-0.843c-0.103,0-0.21,0.002-0.326,0.017c-0.111,0.012-0.219,0.046-0.326,0.096
			c-0.102,0.058-0.187,0.13-0.254,0.226c-0.065,0.106-0.101,0.242-0.101,0.418c0,0.25,0.089,0.43,0.254,0.527
			c0.169,0.103,0.4,0.155,0.681,0.155c0.042,0,0.098-0.003,0.171-0.008c0.075-0.005,0.153-0.012,0.233-0.021
			c0.083-0.012,0.169-0.027,0.259-0.047c0.092-0.018,0.178-0.04,0.252-0.066V14.082z M193,15.748c0,0.142-0.055,0.233-0.169,0.291
			c-0.125,0.059-0.264,0.11-0.415,0.148c-0.151,0.041-0.305,0.076-0.462,0.094c-0.161,0.022-0.32,0.041-0.472,0.053
			c-0.158,0.007-0.303,0.011-0.447,0.011c-0.386,0-0.704-0.041-0.962-0.116c-0.255-0.079-0.459-0.187-0.612-0.317
			c-0.143-0.136-0.248-0.291-0.311-0.472c-0.057-0.177-0.089-0.366-0.089-0.562c0-0.212,0.034-0.406,0.104-0.599
			c0.063-0.188,0.179-0.356,0.328-0.505c0.151-0.141,0.349-0.256,0.596-0.348c0.241-0.09,0.543-0.129,0.896-0.129h0.987v-0.15
			c0-0.107-0.012-0.215-0.036-0.31c-0.028-0.089-0.069-0.173-0.14-0.245c-0.067-0.07-0.16-0.124-0.276-0.159
			c-0.117-0.041-0.268-0.061-0.456-0.061c-0.198,0-0.415,0.016-0.655,0.055c-0.231,0.032-0.421,0.074-0.569,0.122
			c-0.066,0.017-0.114,0.017-0.146,0.013c-0.028-0.013-0.049-0.048-0.057-0.103l-0.124-0.499c-0.024-0.098,0.001-0.159,0.081-0.185
			c0.245-0.092,0.514-0.163,0.808-0.202c0.294-0.036,0.567-0.055,0.827-0.055c0.608,0,1.061,0.133,1.345,0.405
			c0.28,0.27,0.426,0.664,0.426,1.181V15.748z"/>
		<path fill="#A8A9A9" d="M164.898,10.123c-0.021-0.033-0.07-0.048-0.154-0.048h-2.476c-0.295,0-0.546,0.044-0.743,0.135
			c-0.204,0.086-0.364,0.2-0.486,0.349c-0.124,0.15-0.21,0.315-0.262,0.507c-0.047,0.189-0.073,0.389-0.073,0.595v4.407
			c0,0.072,0.015,0.121,0.056,0.146c0.034,0.021,0.081,0.036,0.15,0.036h0.277c0.19-0.015,0.588-0.11,0.588-0.685v-2.03h2.642
			c0.08,0,0.129-0.016,0.146-0.052c0.023-0.034,0.034-0.087,0.034-0.153v-0.497c0-0.084-0.011-0.14-0.034-0.161
			c-0.018-0.03-0.066-0.043-0.146-0.043h-2.642v-1.027c0-0.19,0.047-0.335,0.143-0.426c0.085-0.101,0.247-0.147,0.468-0.147h2.358
			c0.077,0,0.127-0.017,0.149-0.048c0.026-0.027,0.038-0.078,0.038-0.157v-0.544C164.931,10.209,164.919,10.158,164.898,10.123"/>
		<path fill="#A8A9A9" d="M178.797,14.645c-0.058,0.193-0.144,0.352-0.246,0.476c-0.107,0.123-0.235,0.21-0.385,0.267
			c-0.149,0.058-0.319,0.084-0.503,0.084c-0.116,0-0.25-0.006-0.407-0.021c-0.15-0.012-0.294-0.048-0.439-0.093v-2.815
			c0.188-0.06,0.365-0.099,0.537-0.114c0.177-0.02,0.306-0.028,0.399-0.028c0.356,0,0.63,0.123,0.832,0.383
			c0.2,0.247,0.299,0.634,0.299,1.149C178.884,14.216,178.858,14.451,178.797,14.645 M179.824,12.943
			c-0.082-0.293-0.199-0.544-0.359-0.757c-0.164-0.209-0.37-0.374-0.629-0.485c-0.255-0.127-0.557-0.182-0.911-0.182
			c-0.159,0-0.336,0.015-0.54,0.038c-0.202,0.028-0.391,0.067-0.561,0.117l-0.007-1.702c0-0.071-0.011-0.116-0.033-0.134
			c-0.022-0.021-0.069-0.026-0.134-0.026h-0.274c-0.197,0.011-0.566,0.117-0.578,0.663v5.338c0,0.055,0.008,0.098,0.023,0.13
			c0.02,0.027,0.054,0.057,0.106,0.08c0.265,0.126,0.552,0.205,0.866,0.248c0.316,0.047,0.622,0.073,0.921,0.073
			c0.385,0,0.724-0.063,1.008-0.186c0.277-0.12,0.507-0.294,0.693-0.517c0.18-0.22,0.315-0.479,0.398-0.778
			c0.087-0.299,0.125-0.625,0.125-0.977C179.939,13.548,179.901,13.234,179.824,12.943"/>
		<path fill="#A8A9A9" d="M186.662,16.039l-0.063-0.497c-0.006-0.047-0.019-0.077-0.041-0.093c-0.019-0.012-0.053-0.016-0.103-0.01
			c-0.035,0.003-0.09,0.01-0.149,0.015c-0.063,0.008-0.119,0.01-0.164,0.01c-0.114,0-0.197-0.026-0.236-0.083
			c-0.043-0.055-0.063-0.158-0.063-0.314V9.959c0-0.061-0.015-0.104-0.042-0.119c-0.022-0.022-0.07-0.028-0.133-0.028h-0.287
			c-0.191,0.011-0.557,0.117-0.581,0.641v4.86c0,0.382,0.081,0.651,0.235,0.802c0.151,0.157,0.39,0.23,0.721,0.23
			c0.117,0,0.248-0.007,0.397-0.022c0.152-0.019,0.287-0.043,0.401-0.093c0.059-0.029,0.097-0.056,0.106-0.071
			C186.671,16.136,186.671,16.098,186.662,16.039"/>
		<path fill="#A8A9A9" d="M188.92,16.039l-0.062-0.497c-0.01-0.047-0.02-0.077-0.039-0.093c-0.021-0.012-0.06-0.016-0.103-0.01
			c-0.046,0.003-0.097,0.01-0.156,0.015c-0.061,0.008-0.115,0.01-0.162,0.01c-0.116,0-0.192-0.026-0.236-0.083
			c-0.042-0.055-0.063-0.158-0.063-0.314V9.959c0-0.061-0.012-0.104-0.04-0.119c-0.025-0.022-0.069-0.028-0.135-0.028h-0.284
			c-0.194,0.011-0.575,0.117-0.582,0.671v4.83c0,0.382,0.081,0.651,0.231,0.802c0.15,0.157,0.394,0.23,0.722,0.23
			c0.114,0,0.249-0.007,0.403-0.022c0.146-0.019,0.277-0.043,0.398-0.093c0.059-0.029,0.093-0.056,0.106-0.071
			C188.93,16.136,188.93,16.098,188.92,16.039"/>
		<path fill="#A8A9A9" d="M171.162,16.039l-0.063-0.497c-0.008-0.047-0.021-0.077-0.039-0.093c-0.022-0.012-0.056-0.016-0.107-0.01
			c-0.035,0.003-0.09,0.01-0.15,0.015c-0.063,0.008-0.116,0.01-0.163,0.01c-0.117,0-0.196-0.026-0.239-0.083
			c-0.04-0.055-0.06-0.158-0.06-0.314V9.959c0-0.061-0.014-0.104-0.04-0.119c-0.024-0.022-0.07-0.028-0.135-0.028h-0.284
			c-0.193,0.011-0.579,0.117-0.582,0.681v4.82c0,0.382,0.078,0.651,0.23,0.802c0.153,0.157,0.392,0.23,0.724,0.23
			c0.118,0,0.249-0.007,0.4-0.022c0.148-0.019,0.284-0.043,0.401-0.093c0.057-0.029,0.092-0.056,0.106-0.071
			C171.17,16.136,171.17,16.098,171.162,16.039"/>
	</g>
</g>
<g>
	<path fill="#888888" d="M234.656,7.337c0-0.823-0.667-1.489-1.488-1.489c-0.134,0-0.261,0.023-0.384,0.057
		c-1.269-1.59-2.932-2.795-4.864-3.499c-5.758-2.099-12.149,0.879-14.248,6.64c-2.083,5.716,0.836,12.054,6.508,14.203l0,0
		c0.005,0.002,0.01,0.002,0.014,0.004c0.098,0.018,0.777,0.111,0.79-0.514c0.014-0.676-0.681-0.689-0.803-0.77v-0.002
		c-4.789-2.064-7.2-7.553-5.393-12.515c1.875-5.146,7.583-7.804,12.725-5.93c1.725,0.629,3.211,1.706,4.343,3.125
		c-0.109,0.207-0.177,0.439-0.177,0.69c0,0.821,0.667,1.488,1.489,1.488C233.989,8.826,234.656,8.159,234.656,7.337"/>
	<path fill="#888888" d="M222.579,10.587c0.145-0.354-0.024-0.76-0.377-0.904c-0.097-0.039-0.201-0.059-0.304-0.051
		c-0.268,0.016-0.497,0.18-0.6,0.428c0,0-1.27,3.122-1.402,3.45l-0.068,0.17l-1.768-3.67c-0.117-0.242-0.356-0.393-0.625-0.393
		c-0.104,0-0.205,0.023-0.3,0.069c-0.344,0.165-0.49,0.581-0.324,0.925l2.458,5.102c0.115,0.238,0.36,0.393,0.624,0.393h0.001h0.024
		c0.283-0.014,0.528-0.191,0.625-0.451C220.557,15.617,222.559,10.637,222.579,10.587 M225.049,15.43v-5.136
		c0-0.436-0.288-0.738-0.7-0.738c-0.411,0-0.698,0.303-0.698,0.738v5.136c0,0.434,0.287,0.736,0.698,0.736
		C224.761,16.166,225.049,15.863,225.049,15.43 M229.895,13.949c0,0.658-0.523,1.051-1.398,1.051c-0.759,0-1.128-0.264-1.128-0.807
		c0-0.6,0.397-0.844,1.372-0.844l1.154-0.004V13.949z M231.679,15.494c0-0.123-0.04-0.264-0.109-0.385l-0.217-0.395
		c-0.073-0.15-0.098-0.252-0.098-0.561v-2.213c0-1.634-0.868-2.462-2.578-2.462c-0.785,0-1.499,0.178-1.958,0.484
		c-0.214,0.122-0.337,0.331-0.337,0.574c0,0.372,0.251,0.622,0.622,0.622c0.108,0,0.247-0.04,0.383-0.108
		c0.257-0.135,0.723-0.291,1.188-0.291c0.927,0,1.321,0.356,1.321,1.194l0.002,0.214h-1.323c-1.652,0-2.564,0.734-2.564,2.064
		c0,1.26,0.871,2.014,2.332,2.014c0.815,0,1.415-0.207,1.875-0.646l0.145,0.232c0.163,0.225,0.361,0.336,0.606,0.336
		C231.379,16.168,231.679,15.883,231.679,15.494 M233.913,16.408v-6.115c0-0.436-0.287-0.739-0.699-0.739
		c-0.411,0-0.698,0.304-0.698,0.739v6.126c0,0.564-0.118,0.637-0.586,0.68c-0.378,0.031-0.624,0.289-0.624,0.658
		c0,0.391,0.279,0.662,0.673,0.662C233.281,18.42,233.913,17.762,233.913,16.408 M238.853,12.168l-2.694,0.003
		c0.005-0.236,0.03-0.413,0.082-0.567c0.184-0.552,0.633-0.856,1.264-0.856c0.632,0,1.082,0.304,1.266,0.855
		C238.821,11.756,238.846,11.933,238.853,12.168 M240.277,12.777c0-0.627-0.069-1.118-0.215-1.542
		c-0.354-1.117-1.291-1.757-2.57-1.757c-1.26,0-2.191,0.645-2.556,1.768c-0.144,0.431-0.202,0.896-0.202,1.609
		c0,0.678,0.064,1.158,0.214,1.605c0.369,1.15,1.304,1.785,2.633,1.785c0.889,0,1.693-0.311,2.325-0.898
		c0.141-0.139,0.215-0.311,0.215-0.498c0-0.338-0.262-0.605-0.598-0.605c-0.165,0-0.333,0.064-0.479,0.184
		c-0.476,0.357-0.863,0.496-1.385,0.496c-0.704,0-1.203-0.34-1.405-0.959c-0.062-0.197-0.089-0.369-0.097-0.615h3.537
		C240.031,13.35,240.277,13.107,240.277,12.777 M246,10.538c0-0.248-0.135-0.447-0.4-0.588c-0.536-0.305-1.218-0.471-1.919-0.471
		c-1.525,0-2.435,0.762-2.435,2.037c0,1.085,0.703,1.759,1.981,1.896l0.645,0.064c0.991,0.104,1.066,0.363,1.066,0.717
		c0,0.482-0.446,0.77-1.193,0.77c-0.671,0-1.186-0.25-1.644-0.52c-0.164-0.096-0.296-0.139-0.439-0.139
		c-0.372,0-0.661,0.285-0.661,0.648c0,0.232,0.112,0.434,0.325,0.58c0.379,0.266,1.187,0.711,2.331,0.711
		c1.67,0,2.667-0.809,2.667-2.166c0-1.121-0.671-1.763-1.996-1.909l-0.643-0.064c-0.985-0.096-1.066-0.376-1.066-0.679
		c0-0.434,0.378-0.691,1.011-0.691c0.427,0,0.864,0.104,1.298,0.307c0.175,0.081,0.313,0.117,0.452,0.117
		C245.723,11.159,246,10.879,246,10.538"/>
	<path fill="#888888" d="M250.549,13.006c0.015-0.014,0.022-0.047,0.022-0.096v-0.334c0-0.041-0.007-0.074-0.02-0.094
		c-0.012-0.021-0.042-0.029-0.089-0.029h-1.453c-0.173,0-0.321,0.027-0.437,0.082c-0.118,0.053-0.213,0.125-0.284,0.213
		c-0.074,0.092-0.125,0.195-0.153,0.313c-0.028,0.115-0.044,0.236-0.044,0.365v2.697c0,0.045,0.01,0.076,0.031,0.09
		c0.021,0.014,0.051,0.023,0.089,0.023h0.163c0.112-0.01,0.347-0.068,0.347-0.42v-1.244h1.548c0.047,0,0.074-0.01,0.086-0.033
		c0.013-0.021,0.019-0.051,0.019-0.09v-0.307c0-0.053-0.006-0.084-0.019-0.1c-0.012-0.018-0.039-0.027-0.086-0.027h-1.548v-0.629
		c0-0.115,0.025-0.203,0.082-0.262c0.051-0.061,0.145-0.09,0.275-0.09h1.384C250.506,13.035,250.536,13.025,250.549,13.006
		 M252.145,15.701c-0.044,0.018-0.093,0.031-0.147,0.043c-0.054,0.012-0.104,0.02-0.153,0.025c-0.046,0.008-0.093,0.014-0.135,0.014
		c-0.043,0.004-0.078,0.006-0.102,0.006c-0.164,0-0.298-0.031-0.397-0.094c-0.098-0.061-0.149-0.168-0.149-0.324
		c0-0.107,0.02-0.191,0.058-0.254c0.04-0.063,0.091-0.105,0.15-0.141c0.061-0.031,0.124-0.051,0.192-0.059
		c0.067-0.008,0.129-0.01,0.188-0.01h0.496V15.701z M252.754,15.93v-1.621c0-0.316-0.083-0.559-0.25-0.723
		c-0.168-0.166-0.43-0.248-0.788-0.248c-0.151,0-0.313,0.012-0.485,0.033c-0.172,0.025-0.332,0.068-0.475,0.123
		c-0.046,0.018-0.06,0.055-0.046,0.113l0.073,0.307c0.009,0.033,0.019,0.055,0.036,0.061c0.015,0.006,0.043,0.004,0.081-0.006
		c0.088-0.029,0.198-0.055,0.337-0.074c0.138-0.023,0.265-0.035,0.381-0.035c0.111,0,0.2,0.014,0.271,0.037
		c0.067,0.023,0.121,0.057,0.162,0.098c0.04,0.045,0.065,0.096,0.08,0.152c0.012,0.059,0.02,0.121,0.02,0.189v0.092h-0.58
		c-0.205,0-0.379,0.025-0.523,0.08c-0.143,0.055-0.256,0.125-0.349,0.213c-0.09,0.088-0.154,0.191-0.193,0.309
		c-0.04,0.117-0.06,0.236-0.06,0.365c0,0.121,0.018,0.238,0.052,0.348c0.035,0.109,0.096,0.203,0.183,0.285
		c0.088,0.082,0.207,0.145,0.357,0.195c0.149,0.049,0.338,0.072,0.565,0.072c0.083,0,0.17-0.002,0.262-0.008
		c0.091-0.006,0.183-0.016,0.276-0.029c0.093-0.014,0.183-0.035,0.272-0.059c0.086-0.027,0.168-0.059,0.243-0.094
		C252.721,16.072,252.754,16.014,252.754,15.93 M254.161,16.223c0.035-0.018,0.055-0.033,0.063-0.045
		c0.006-0.012,0.006-0.037,0-0.072l-0.036-0.303c-0.004-0.029-0.011-0.047-0.023-0.057c-0.012-0.008-0.032-0.01-0.061-0.008
		c-0.023,0.004-0.054,0.008-0.09,0.012c-0.037,0.004-0.069,0.004-0.095,0.004c-0.068,0-0.115-0.016-0.139-0.051
		c-0.025-0.033-0.038-0.098-0.038-0.191v-3.129c0-0.039-0.007-0.064-0.022-0.075c-0.017-0.012-0.041-0.017-0.079-0.017h-0.167
		c-0.115,0.009-0.339,0.073-0.339,0.418v2.953c0,0.234,0.044,0.398,0.133,0.492c0.09,0.094,0.23,0.141,0.425,0.141
		c0.066,0,0.146-0.006,0.235-0.014C254.014,16.271,254.093,16.254,254.161,16.223 M256,15.701c-0.045,0.018-0.094,0.031-0.147,0.043
		c-0.054,0.012-0.104,0.02-0.152,0.025c-0.049,0.008-0.096,0.014-0.136,0.014c-0.043,0.004-0.076,0.006-0.1,0.006
		c-0.168,0-0.299-0.031-0.398-0.094c-0.101-0.061-0.149-0.168-0.149-0.324c0-0.107,0.018-0.191,0.058-0.254
		c0.04-0.063,0.091-0.105,0.151-0.141c0.061-0.031,0.124-0.051,0.19-0.059c0.067-0.008,0.129-0.01,0.19-0.01H256V15.701z
		 M256.608,15.93v-1.621c0-0.316-0.083-0.559-0.25-0.723c-0.166-0.166-0.428-0.248-0.787-0.248c-0.152,0-0.314,0.012-0.486,0.033
		c-0.172,0.025-0.331,0.068-0.475,0.123c-0.045,0.018-0.062,0.055-0.046,0.113l0.071,0.307c0.009,0.033,0.021,0.055,0.04,0.061
		c0.016,0.006,0.043,0.004,0.08-0.006c0.086-0.029,0.199-0.055,0.336-0.074c0.137-0.023,0.266-0.035,0.382-0.035
		c0.11,0,0.199,0.014,0.268,0.037c0.069,0.023,0.124,0.057,0.165,0.098c0.039,0.045,0.064,0.096,0.078,0.152
		c0.015,0.059,0.021,0.121,0.021,0.189v0.092h-0.58c-0.205,0-0.379,0.025-0.523,0.08c-0.142,0.055-0.257,0.125-0.348,0.213
		c-0.089,0.088-0.152,0.191-0.191,0.309c-0.041,0.117-0.062,0.236-0.062,0.365c0,0.121,0.018,0.238,0.053,0.348
		c0.034,0.109,0.094,0.203,0.182,0.285s0.206,0.145,0.357,0.195c0.149,0.049,0.337,0.072,0.565,0.072
		c0.083,0,0.169-0.002,0.26-0.008c0.093-0.006,0.184-0.016,0.277-0.029c0.094-0.014,0.183-0.035,0.271-0.059
		c0.086-0.027,0.169-0.059,0.244-0.094C256.576,16.072,256.608,16.014,256.608,15.93 M258.753,14.818c0,0.17-0.016,0.316-0.05,0.434
		c-0.035,0.119-0.084,0.219-0.146,0.293c-0.063,0.076-0.138,0.129-0.225,0.164c-0.089,0.035-0.188,0.051-0.295,0.051
		c-0.069,0-0.149-0.004-0.24-0.014c-0.088-0.008-0.174-0.027-0.257-0.055v-1.729c0.109-0.035,0.215-0.059,0.315-0.068
		c0.103-0.012,0.18-0.018,0.235-0.018c0.207,0,0.369,0.078,0.487,0.234C258.696,14.264,258.753,14.5,258.753,14.818 M259.299,15.389
		c0.051-0.184,0.074-0.385,0.074-0.6c0-0.209-0.022-0.402-0.068-0.58c-0.047-0.18-0.117-0.332-0.213-0.461
		c-0.094-0.129-0.215-0.23-0.367-0.301c-0.149-0.074-0.327-0.109-0.533-0.109c-0.094,0-0.2,0.006-0.319,0.023
		c-0.119,0.016-0.229,0.041-0.329,0.072l-0.004-1.045c0-0.044-0.006-0.07-0.021-0.081c-0.013-0.013-0.039-0.016-0.077-0.016h-0.162
		c-0.114,0.009-0.333,0.07-0.339,0.406v3.273c0,0.031,0.004,0.057,0.016,0.08c0.009,0.018,0.032,0.035,0.061,0.049
		c0.155,0.072,0.324,0.123,0.508,0.15c0.185,0.031,0.365,0.045,0.542,0.045c0.226,0,0.422-0.037,0.589-0.113
		c0.163-0.076,0.299-0.18,0.407-0.316C259.171,15.73,259.25,15.572,259.299,15.389 M261.407,14.551h-1.188
		c0.002-0.09,0.019-0.176,0.051-0.258c0.032-0.084,0.075-0.156,0.125-0.221c0.049-0.064,0.112-0.115,0.186-0.154
		c0.073-0.039,0.154-0.059,0.247-0.059c0.118,0,0.213,0.02,0.289,0.055c0.073,0.035,0.131,0.086,0.174,0.15
		c0.044,0.063,0.073,0.135,0.09,0.217C261.399,14.365,261.407,14.453,261.407,14.551 M261.955,14.762
		c0.021-0.061,0.03-0.139,0.03-0.232c0-0.371-0.095-0.66-0.286-0.873c-0.19-0.213-0.484-0.318-0.879-0.318
		c-0.179,0-0.345,0.033-0.497,0.102c-0.151,0.064-0.28,0.16-0.391,0.289c-0.107,0.127-0.192,0.283-0.253,0.471
		c-0.063,0.184-0.095,0.395-0.095,0.633c0,0.508,0.112,0.879,0.332,1.109c0.218,0.236,0.537,0.354,0.954,0.354
		c0.141,0,0.29-0.018,0.444-0.051c0.157-0.031,0.299-0.088,0.43-0.172c0.047-0.025,0.06-0.064,0.037-0.125l-0.14-0.305
		c-0.022-0.049-0.061-0.057-0.115-0.033c-0.078,0.039-0.172,0.076-0.277,0.104c-0.106,0.029-0.216,0.041-0.325,0.041
		c-0.1,0-0.193-0.012-0.28-0.037c-0.085-0.025-0.161-0.068-0.227-0.127c-0.064-0.059-0.117-0.137-0.154-0.23
		c-0.039-0.098-0.059-0.213-0.061-0.354h1.372c0.059,0,0.113-0.01,0.164-0.023c0.048-0.012,0.093-0.039,0.13-0.074
		C261.903,14.871,261.934,14.822,261.955,14.762 M263.252,16.223c0.035-0.018,0.056-0.033,0.063-0.045s0.006-0.037,0-0.072
		l-0.037-0.303c-0.003-0.029-0.01-0.047-0.023-0.057c-0.012-0.008-0.031-0.01-0.06-0.008c-0.022,0.004-0.053,0.008-0.09,0.012
		c-0.035,0.004-0.069,0.004-0.095,0.004c-0.068,0-0.115-0.016-0.14-0.051c-0.023-0.033-0.034-0.098-0.034-0.191v-3.129
		c0-0.039-0.009-0.064-0.025-0.075c-0.015-0.012-0.043-0.017-0.08-0.017h-0.167c-0.113,0.009-0.328,0.071-0.34,0.393v2.979
		c0,0.234,0.045,0.398,0.136,0.492c0.089,0.094,0.229,0.141,0.424,0.141c0.069,0,0.146-0.006,0.233-0.014
		C263.105,16.271,263.185,16.254,263.252,16.223 M264.578,16.223c0.034-0.018,0.054-0.033,0.061-0.045
		c0.007-0.012,0.007-0.037,0-0.072l-0.036-0.303c-0.004-0.029-0.01-0.047-0.023-0.057c-0.011-0.008-0.033-0.01-0.06-0.008
		c-0.024,0.004-0.055,0.008-0.091,0.012c-0.035,0.004-0.068,0.004-0.094,0.004c-0.069,0-0.115-0.016-0.141-0.051
		c-0.023-0.033-0.033-0.098-0.033-0.191v-3.129c0-0.039-0.01-0.064-0.025-0.075c-0.014-0.012-0.042-0.017-0.08-0.017h-0.166
		c-0.114,0.009-0.337,0.073-0.341,0.413v2.959c0,0.234,0.045,0.398,0.135,0.492c0.089,0.094,0.23,0.141,0.423,0.141
		c0.069,0,0.147-0.006,0.237-0.014C264.429,16.271,264.508,16.254,264.578,16.223 M266.423,15.701
		c-0.044,0.018-0.094,0.031-0.147,0.043s-0.104,0.02-0.153,0.025c-0.046,0.008-0.093,0.014-0.136,0.014
		c-0.044,0.004-0.075,0.006-0.101,0.006c-0.165,0-0.298-0.031-0.397-0.094c-0.099-0.061-0.149-0.168-0.149-0.324
		c0-0.107,0.02-0.191,0.059-0.254c0.04-0.063,0.089-0.105,0.149-0.141c0.061-0.031,0.125-0.051,0.192-0.059
		c0.066-0.008,0.13-0.01,0.187-0.01h0.497V15.701z M267.033,15.93v-1.621c0-0.316-0.084-0.559-0.25-0.723
		c-0.167-0.166-0.43-0.248-0.789-0.248c-0.151,0-0.312,0.012-0.486,0.033c-0.171,0.025-0.329,0.068-0.473,0.123
		c-0.046,0.018-0.061,0.055-0.048,0.113l0.074,0.307c0.005,0.033,0.018,0.055,0.036,0.061c0.016,0.006,0.044,0.004,0.083-0.006
		c0.087-0.029,0.198-0.055,0.334-0.074c0.14-0.023,0.268-0.035,0.384-0.035c0.109,0,0.2,0.014,0.269,0.037
		c0.069,0.023,0.123,0.057,0.163,0.098c0.038,0.045,0.066,0.096,0.08,0.152c0.015,0.059,0.021,0.121,0.021,0.189v0.092h-0.579
		c-0.207,0-0.38,0.025-0.524,0.08c-0.143,0.055-0.26,0.125-0.348,0.213c-0.09,0.088-0.156,0.191-0.194,0.309
		c-0.041,0.117-0.06,0.236-0.06,0.365c0,0.121,0.018,0.238,0.051,0.348c0.036,0.109,0.097,0.203,0.183,0.285
		c0.089,0.082,0.208,0.145,0.357,0.195c0.153,0.049,0.339,0.072,0.565,0.072c0.086,0,0.17-0.002,0.263-0.008
		c0.088-0.006,0.181-0.016,0.275-0.029c0.092-0.014,0.182-0.035,0.272-0.059c0.088-0.027,0.168-0.059,0.243-0.094
		C267,16.072,267.033,16.014,267.033,15.93 M268,15.953c0-0.188-0.153-0.34-0.341-0.34c-0.188,0-0.341,0.152-0.341,0.34
		c0,0.189,0.152,0.342,0.341,0.342C267.848,16.295,268,16.143,268,15.953"/>
</g>
<g>
	<path fill="#888888" d="M304.16,21.844c-0.133,0.07-0.261,0.092-0.378,0.092c-0.381,0-0.585-0.242-0.585-0.572
		c0-0.328,0.237-0.592,0.613-0.592c0.126,0,0.23,0.021,0.305,0.055v0.217c-0.091-0.047-0.189-0.074-0.299-0.074
		c-0.247,0-0.367,0.182-0.367,0.391c0,0.223,0.14,0.381,0.361,0.381c0.116,0,0.2-0.035,0.283-0.084L304.16,21.844z"/>
	<path fill="#888888" d="M306.788,21.354c0-0.344,0.237-0.58,0.578-0.58c0.342,0,0.581,0.236,0.581,0.58
		c0,0.348-0.239,0.582-0.581,0.582C307.025,21.936,306.788,21.701,306.788,21.354 M307.694,21.354c0-0.246-0.13-0.385-0.328-0.385
		c-0.193,0-0.327,0.137-0.327,0.385c0,0.25,0.134,0.387,0.327,0.387C307.563,21.74,307.694,21.604,307.694,21.354"/>
	<path fill="#888888" d="M310.575,20.783h0.34c0.1,0,0.176,0.016,0.237,0.043c0.131,0.059,0.18,0.164,0.18,0.285
		c0,0.148-0.093,0.254-0.218,0.293v0.002c0.034,0.02,0.083,0.082,0.144,0.188l0.184,0.324h-0.271l-0.15-0.271
		c-0.056-0.107-0.095-0.15-0.123-0.156h-0.088v0.428h-0.234V20.783z M310.898,21.299c0.051,0,0.084-0.01,0.114-0.023
		c0.045-0.027,0.076-0.074,0.076-0.139c0-0.061-0.027-0.111-0.078-0.139c-0.026-0.016-0.059-0.023-0.11-0.023h-0.091v0.324H310.898z
		"/>
	<path fill="#888888" d="M314.069,20.783h0.34c0.102,0,0.178,0.016,0.237,0.043c0.132,0.059,0.183,0.164,0.183,0.287
		c0,0.146-0.094,0.252-0.222,0.291v0.002c0.035,0.02,0.084,0.082,0.145,0.188l0.184,0.324h-0.27l-0.149-0.271
		c-0.058-0.107-0.098-0.15-0.124-0.156h-0.086v0.428h-0.237V20.783z M314.394,21.299c0.052,0,0.084-0.01,0.113-0.023
		c0.046-0.027,0.076-0.074,0.076-0.139c0-0.061-0.027-0.111-0.077-0.139c-0.027-0.016-0.059-0.023-0.11-0.023h-0.089v0.324H314.394z
		"/>
	<polygon fill="#888888" points="317.564,20.783 318.22,20.783 318.158,20.984 317.801,20.984 317.801,21.246 318.159,21.246 
		318.159,21.443 317.801,21.443 317.801,21.719 318.22,21.719 318.22,21.918 317.564,21.918 	"/>
	<path fill="#888888" d="M320.848,20.783h0.382c0.401,0,0.629,0.219,0.629,0.559c0,0.352-0.26,0.576-0.65,0.576h-0.36V20.783z
		 M321.213,21.719c0.28,0,0.393-0.172,0.393-0.369c0-0.23-0.135-0.367-0.397-0.367h-0.124v0.736H321.213z"/>
	<path fill="#888888" d="M324.486,21.354c0-0.344,0.237-0.58,0.579-0.58s0.579,0.236,0.579,0.58c0,0.348-0.239,0.582-0.579,0.582
		C324.724,21.936,324.486,21.701,324.486,21.354 M325.392,21.354c0-0.246-0.13-0.385-0.326-0.385c-0.195,0-0.327,0.137-0.327,0.385
		c0,0.25,0.132,0.387,0.327,0.387C325.26,21.74,325.392,21.604,325.392,21.354"/>
	<path fill="#888888" d="M328.273,20.783h0.34c0.101,0,0.177,0.016,0.237,0.043c0.132,0.059,0.18,0.164,0.18,0.287
		c0,0.146-0.092,0.252-0.219,0.291v0.002c0.033,0.02,0.083,0.082,0.144,0.188l0.184,0.324h-0.271l-0.148-0.271
		c-0.058-0.107-0.098-0.15-0.125-0.156h-0.085v0.428h-0.236V20.783z M328.597,21.299c0.051,0,0.084-0.01,0.112-0.023
		c0.047-0.027,0.076-0.074,0.076-0.139c0-0.061-0.025-0.111-0.077-0.139c-0.025-0.016-0.058-0.023-0.108-0.023h-0.09v0.324H328.597z
		"/>
	<polygon fill="#888888" points="331.767,20.783 332.424,20.783 332.36,20.984 332.004,20.984 332.004,21.246 332.363,21.246 
		332.363,21.443 332.004,21.443 332.004,21.719 332.422,21.719 332.422,21.918 331.767,21.918 	"/>
	<path fill="#888888" d="M335.143,21.654c0.071,0.049,0.157,0.086,0.258,0.086c0.088,0,0.176-0.033,0.176-0.117
		c0-0.207-0.485-0.18-0.485-0.527c0-0.172,0.134-0.322,0.381-0.322c0.12,0,0.223,0.025,0.288,0.057v0.213
		c-0.099-0.049-0.19-0.074-0.282-0.074c-0.071,0-0.136,0.025-0.136,0.107c0,0.191,0.485,0.164,0.485,0.525
		c0,0.207-0.181,0.334-0.418,0.334c-0.134,0-0.266-0.035-0.356-0.104L335.143,21.654z"/>
	<path fill="#888888" d="M298.169,8.146c-1.069-1.069-2.543-1.729-4.175-1.729c-1.632,0.001-3.104,0.659-4.173,1.729
		c-0.854,0.854-1.443,1.964-1.649,3.205v0.253c1.716-0.404,3.769-0.601,5.822-0.602c2.056,0.001,4.107,0.197,5.824,0.601v-0.241
		C299.615,10.114,299.023,9.002,298.169,8.146"/>
	<path fill="#888888" d="M298.776,3h-9.563c-0.575,0-1.041,0.467-1.041,1.041v4.436c1.248-1.889,3.391-3.135,5.822-3.135
		c2.436,0,4.576,1.248,5.824,3.138V4.041C299.818,3.467,299.353,3,298.776,3"/>
	<path fill="#888888" d="M294.521,12.081v5.864c0.002,0.535,0.437,0.973,0.973,0.973c0.539,0,0.974-0.438,0.974-0.973
		c0-0.291,0.236-0.525,0.527-0.525c0.29,0,0.524,0.234,0.524,0.525c0,1.119-0.905,2.023-2.025,2.025
		c-1.117-0.002-2.023-0.906-2.023-2.025l0,0v-5.864c-1.911,0.032-3.791,0.246-5.298,0.629v8.249c0,0.574,0.467,1.041,1.042,1.041
		h9.563c0.576,0,1.042-0.467,1.042-1.041V12.71C298.312,12.328,296.432,12.113,294.521,12.081"/>
	<path fill="#888888" d="M310.13,17.006h-0.854c-0.101,0-0.207,0.006-0.322,0.018c-0.118,0.014-0.226,0.049-0.331,0.105
		c-0.103,0.061-0.189,0.139-0.259,0.248c-0.065,0.111-0.1,0.26-0.1,0.447c0,0.275,0.088,0.467,0.256,0.576
		c0.172,0.109,0.402,0.164,0.685,0.164c0.041,0,0.102-0.004,0.175-0.008s0.154-0.012,0.234-0.025
		c0.083-0.012,0.17-0.027,0.263-0.047s0.177-0.043,0.253-0.076V17.006z M311.18,18.813c0,0.15-0.058,0.254-0.172,0.313
		c-0.128,0.064-0.27,0.119-0.418,0.164c-0.154,0.043-0.309,0.078-0.468,0.104s-0.318,0.043-0.474,0.053
		c-0.159,0.01-0.308,0.014-0.451,0.014c-0.391,0-0.715-0.041-0.973-0.127c-0.26-0.088-0.464-0.201-0.615-0.344
		c-0.149-0.146-0.255-0.314-0.314-0.508c-0.059-0.193-0.089-0.4-0.089-0.613c0-0.227,0.035-0.438,0.104-0.646
		c0.066-0.207,0.177-0.389,0.331-0.545c0.159-0.154,0.355-0.279,0.602-0.377c0.247-0.096,0.548-0.143,0.899-0.143h0.998v-0.162
		c0-0.119-0.014-0.232-0.035-0.336c-0.023-0.1-0.07-0.189-0.137-0.268c-0.07-0.072-0.163-0.133-0.278-0.172
		c-0.123-0.043-0.275-0.066-0.466-0.066c-0.201,0-0.42,0.02-0.657,0.063c-0.239,0.033-0.428,0.078-0.58,0.131
		c-0.063,0.016-0.112,0.02-0.138,0.012c-0.03-0.014-0.049-0.049-0.063-0.109l-0.125-0.543c-0.024-0.104,0-0.168,0.079-0.199
		c0.246-0.098,0.521-0.174,0.817-0.217c0.296-0.039,0.574-0.061,0.834-0.061c0.617,0,1.067,0.146,1.356,0.438
		c0.288,0.293,0.432,0.721,0.432,1.281V18.813z"/>
	<path fill="#888888" d="M316.763,17.006h-0.852c-0.104,0-0.212,0.006-0.326,0.018c-0.115,0.014-0.224,0.049-0.328,0.105
		c-0.104,0.061-0.19,0.139-0.26,0.248c-0.068,0.111-0.1,0.26-0.1,0.447c0,0.277,0.084,0.467,0.257,0.576
		c0.172,0.109,0.397,0.164,0.686,0.164c0.043,0,0.098-0.004,0.173-0.008c0.07-0.004,0.151-0.012,0.234-0.025
		c0.084-0.012,0.17-0.027,0.262-0.047c0.093-0.02,0.176-0.043,0.254-0.076V17.006z M317.812,18.813c0,0.15-0.056,0.254-0.172,0.313
		c-0.127,0.064-0.271,0.119-0.419,0.164c-0.152,0.043-0.306,0.078-0.468,0.104c-0.16,0.025-0.317,0.043-0.476,0.053
		c-0.157,0.01-0.306,0.014-0.447,0.014c-0.392,0-0.716-0.041-0.974-0.127c-0.259-0.088-0.463-0.201-0.614-0.344
		c-0.151-0.146-0.255-0.314-0.313-0.508c-0.062-0.193-0.092-0.4-0.092-0.613c0-0.227,0.036-0.438,0.106-0.646
		c0.067-0.207,0.176-0.389,0.33-0.545c0.155-0.154,0.354-0.279,0.599-0.377c0.248-0.096,0.547-0.143,0.9-0.143h0.998v-0.162
		c0-0.119-0.011-0.232-0.036-0.336c-0.023-0.1-0.067-0.189-0.135-0.268c-0.069-0.072-0.164-0.133-0.282-0.172
		c-0.118-0.043-0.272-0.066-0.461-0.066c-0.202,0-0.423,0.02-0.659,0.063c-0.236,0.033-0.429,0.078-0.577,0.131
		c-0.063,0.016-0.111,0.02-0.139,0.012c-0.031-0.014-0.053-0.049-0.066-0.109l-0.123-0.543c-0.027-0.104,0.003-0.168,0.079-0.199
		c0.249-0.098,0.522-0.174,0.818-0.217c0.297-0.039,0.575-0.061,0.837-0.061c0.617,0,1.067,0.146,1.354,0.439
		c0.289,0.291,0.432,0.719,0.432,1.279V18.813z"/>
	<path fill="#888888" d="M325.074,15.152c-0.159,0-0.3,0.035-0.425,0.102c-0.128,0.07-0.234,0.16-0.319,0.271
		c-0.088,0.117-0.162,0.246-0.217,0.393c-0.054,0.145-0.084,0.297-0.087,0.459h2.044c0-0.174-0.014-0.33-0.046-0.479
		c-0.028-0.146-0.08-0.273-0.154-0.385s-0.174-0.201-0.3-0.266C325.439,15.188,325.276,15.152,325.074,15.152 M325.058,14.229
		c0.68,0,1.188,0.189,1.515,0.563c0.329,0.377,0.492,0.891,0.492,1.547c0,0.166-0.017,0.303-0.052,0.412
		c-0.036,0.105-0.089,0.189-0.152,0.256c-0.064,0.064-0.141,0.109-0.226,0.133c-0.087,0.023-0.179,0.039-0.281,0.039h-2.361
		c0.005,0.252,0.037,0.455,0.105,0.625c0.064,0.17,0.153,0.305,0.265,0.41c0.113,0.105,0.244,0.18,0.391,0.223
		c0.149,0.045,0.312,0.068,0.482,0.068c0.188,0,0.378-0.023,0.561-0.076c0.182-0.047,0.343-0.109,0.478-0.182
		c0.093-0.041,0.16-0.027,0.198,0.059l0.24,0.541c0.04,0.105,0.018,0.176-0.063,0.221c-0.226,0.148-0.47,0.248-0.739,0.305
		c-0.266,0.059-0.521,0.088-0.764,0.088c-0.718,0-1.268-0.207-1.643-0.623c-0.379-0.41-0.571-1.066-0.571-1.963
		c0-0.422,0.054-0.795,0.162-1.123c0.104-0.328,0.252-0.607,0.437-0.83c0.19-0.227,0.412-0.398,0.672-0.512
		C324.465,14.287,324.75,14.229,325.058,14.229"/>
	<path fill="#888888" d="M334.703,17.006h-0.854c-0.1,0-0.209,0.006-0.323,0.018c-0.115,0.014-0.226,0.049-0.33,0.105
		c-0.103,0.061-0.188,0.139-0.257,0.248c-0.067,0.109-0.102,0.26-0.102,0.447c0,0.275,0.087,0.467,0.257,0.576
		c0.171,0.109,0.401,0.164,0.686,0.164c0.044,0,0.098-0.004,0.173-0.01c0.075-0.002,0.154-0.01,0.234-0.023
		c0.085-0.012,0.172-0.027,0.263-0.047c0.093-0.02,0.178-0.043,0.254-0.076V17.006z M335.753,18.813c0,0.15-0.059,0.254-0.172,0.313
		c-0.128,0.063-0.267,0.119-0.418,0.162c-0.154,0.043-0.31,0.08-0.468,0.105c-0.161,0.023-0.321,0.043-0.475,0.053
		c-0.159,0.01-0.305,0.014-0.451,0.014c-0.39,0-0.711-0.043-0.974-0.129c-0.256-0.086-0.461-0.199-0.613-0.344
		c-0.148-0.145-0.255-0.313-0.315-0.506c-0.058-0.193-0.089-0.4-0.089-0.613c0-0.227,0.034-0.438,0.104-0.646
		c0.065-0.207,0.18-0.391,0.334-0.545c0.151-0.154,0.354-0.279,0.599-0.377c0.247-0.098,0.547-0.143,0.902-0.143h0.996v-0.162
		c0-0.119-0.01-0.232-0.035-0.336c-0.024-0.1-0.072-0.189-0.138-0.268c-0.07-0.072-0.162-0.133-0.281-0.172
		c-0.117-0.043-0.272-0.066-0.461-0.066c-0.2,0-0.421,0.02-0.661,0.063c-0.233,0.033-0.425,0.078-0.575,0.131
		c-0.066,0.016-0.114,0.02-0.142,0.01c-0.031-0.012-0.053-0.049-0.062-0.107l-0.127-0.543c-0.023-0.104,0.003-0.17,0.082-0.199
		c0.248-0.098,0.521-0.174,0.815-0.217c0.299-0.039,0.575-0.061,0.835-0.061c0.618,0,1.071,0.146,1.358,0.439
		c0.285,0.291,0.431,0.719,0.431,1.279V18.813z"/>
	<path fill="#888888" d="M307.387,12.716c-0.02-0.037-0.072-0.052-0.154-0.052h-2.499c-0.299,0-0.553,0.048-0.754,0.145
		c-0.202,0.093-0.365,0.221-0.487,0.377c-0.127,0.164-0.215,0.346-0.264,0.553c-0.049,0.205-0.075,0.418-0.075,0.646v4.77
		c0,0.08,0.017,0.137,0.053,0.16c0.037,0.025,0.088,0.041,0.153,0.041h0.281c0.193-0.016,0.597-0.121,0.597-0.744v-2.197h2.665
		c0.081,0,0.127-0.018,0.147-0.059c0.023-0.037,0.032-0.092,0.032-0.162v-0.541c0-0.094-0.009-0.148-0.032-0.178
		c-0.021-0.027-0.066-0.045-0.147-0.045h-2.665v-1.113c0-0.203,0.045-0.359,0.141-0.465c0.089-0.105,0.25-0.158,0.474-0.158h2.381
		c0.076,0,0.128-0.016,0.15-0.051c0.026-0.027,0.038-0.086,0.038-0.172v-0.588C307.421,12.809,307.409,12.751,307.387,12.716"/>
	<path fill="#888888" d="M321.417,17.615c-0.06,0.211-0.146,0.385-0.25,0.516c-0.109,0.135-0.236,0.23-0.388,0.291
		c-0.151,0.063-0.323,0.09-0.507,0.09c-0.119,0-0.256-0.004-0.412-0.023c-0.152-0.014-0.299-0.047-0.444-0.098v-3.057
		c0.189-0.063,0.371-0.104,0.543-0.119c0.177-0.021,0.31-0.033,0.404-0.033c0.356,0,0.636,0.139,0.839,0.414
		c0.203,0.271,0.301,0.689,0.301,1.25C321.503,17.148,321.476,17.406,321.417,17.615 M322.452,15.771
		c-0.081-0.318-0.202-0.59-0.366-0.818c-0.162-0.227-0.371-0.408-0.631-0.531c-0.257-0.133-0.563-0.193-0.917-0.193
		c-0.163,0-0.345,0.014-0.549,0.043c-0.205,0.027-0.393,0.072-0.565,0.127l-0.008-1.849c0-0.077-0.01-0.124-0.036-0.145
		c-0.021-0.021-0.066-0.027-0.131-0.027h-0.28c-0.195,0.016-0.572,0.125-0.584,0.718v5.791c0,0.055,0.009,0.102,0.028,0.139
		c0.016,0.033,0.055,0.063,0.104,0.088c0.267,0.131,0.558,0.219,0.875,0.266c0.318,0.055,0.628,0.08,0.933,0.08
		c0.387,0,0.727-0.066,1.015-0.199c0.279-0.135,0.515-0.318,0.699-0.561c0.182-0.238,0.319-0.518,0.403-0.846
		c0.088-0.322,0.128-0.678,0.128-1.059C322.57,16.426,322.531,16.086,322.452,15.771"/>
	<path fill="#888888" d="M329.354,19.125l-0.063-0.535c-0.007-0.053-0.019-0.082-0.04-0.102c-0.02-0.014-0.054-0.016-0.103-0.012
		c-0.039,0.004-0.093,0.01-0.155,0.02c-0.061,0.008-0.118,0.008-0.163,0.008c-0.118,0-0.2-0.029-0.24-0.092
		c-0.042-0.057-0.06-0.172-0.06-0.338v-5.533c0-0.071-0.016-0.115-0.043-0.135c-0.026-0.021-0.074-0.029-0.138-0.029h-0.287
		c-0.193,0.017-0.565,0.126-0.586,0.695v5.27c0,0.412,0.078,0.703,0.233,0.869c0.154,0.168,0.395,0.248,0.731,0.248
		c0.117,0,0.25-0.01,0.4-0.023c0.151-0.02,0.288-0.049,0.405-0.102c0.059-0.033,0.096-0.061,0.106-0.082
		C329.364,19.232,329.364,19.188,329.354,19.125"/>
	<path fill="#888888" d="M331.632,19.125l-0.063-0.535c-0.007-0.053-0.018-0.082-0.039-0.102c-0.019-0.014-0.057-0.018-0.104-0.012
		c-0.041,0.004-0.094,0.01-0.156,0.02c-0.061,0.008-0.117,0.008-0.162,0.008c-0.119,0-0.198-0.029-0.241-0.092
		c-0.04-0.057-0.058-0.172-0.058-0.338V12.54c0-0.07-0.018-0.114-0.043-0.134c-0.024-0.021-0.073-0.029-0.139-0.029h-0.286
		c-0.196,0.017-0.579,0.13-0.587,0.729v5.236c0,0.412,0.079,0.703,0.233,0.867c0.153,0.17,0.396,0.25,0.728,0.25
		c0.12,0,0.253-0.01,0.407-0.023c0.147-0.02,0.283-0.049,0.404-0.102c0.059-0.033,0.093-0.061,0.104-0.082
		C331.644,19.232,331.644,19.188,331.632,19.125"/>
	<path fill="#888888" d="M313.708,19.125l-0.063-0.535c-0.007-0.053-0.02-0.082-0.039-0.102c-0.021-0.014-0.057-0.016-0.105-0.012
		c-0.04,0.004-0.094,0.01-0.156,0.02c-0.063,0.008-0.117,0.008-0.163,0.008c-0.117,0-0.197-0.029-0.239-0.092
		c-0.043-0.057-0.064-0.172-0.064-0.338v-5.533c0-0.072-0.012-0.115-0.038-0.135c-0.029-0.021-0.07-0.029-0.137-0.029h-0.287
		c-0.197,0.017-0.583,0.13-0.584,0.738v5.227c0,0.412,0.076,0.703,0.23,0.869c0.154,0.168,0.396,0.248,0.73,0.248
		c0.115,0,0.251-0.01,0.405-0.023c0.146-0.02,0.283-0.049,0.401-0.102c0.061-0.031,0.094-0.061,0.108-0.082
		C313.719,19.232,313.719,19.188,313.708,19.125"/>
	<path fill="#888888" d="M303.35,4.946c0-0.274,0.045-0.526,0.135-0.755c0.092-0.229,0.227-0.428,0.407-0.594
		c0.184-0.168,0.41-0.297,0.685-0.39c0.275-0.091,0.597-0.136,0.967-0.136c0.173,0,0.355,0.009,0.542,0.027
		c0.188,0.02,0.375,0.047,0.562,0.079s0.369,0.076,0.544,0.129c0.175,0.051,0.338,0.11,0.485,0.176
		c0.051,0.033,0.084,0.063,0.098,0.089c0.012,0.025,0.005,0.071-0.019,0.137l-0.235,0.668c-0.024,0.072-0.049,0.11-0.07,0.117
		c-0.024,0.007-0.062,0.003-0.114-0.01c-0.324-0.111-0.639-0.194-0.949-0.249c-0.311-0.058-0.598-0.085-0.865-0.085
		c-0.336,0-0.579,0.07-0.731,0.21c-0.151,0.142-0.227,0.307-0.227,0.496c0,0.119,0.026,0.225,0.081,0.318
		c0.054,0.096,0.145,0.188,0.266,0.275c0.125,0.09,0.276,0.178,0.462,0.266c0.185,0.089,0.41,0.186,0.674,0.29
		c0.279,0.118,0.545,0.238,0.799,0.359c0.25,0.121,0.472,0.262,0.666,0.428c0.195,0.162,0.35,0.353,0.462,0.573
		c0.111,0.219,0.169,0.484,0.169,0.798c0,0.342-0.063,0.638-0.187,0.89c-0.128,0.25-0.299,0.461-0.518,0.622
		c-0.216,0.165-0.472,0.287-0.771,0.369c-0.296,0.08-0.617,0.123-0.958,0.123c-0.409,0-0.837-0.04-1.281-0.117
		c-0.447-0.079-0.86-0.222-1.242-0.433c-0.09-0.04-0.111-0.117-0.058-0.235l0.29-0.667c0.047-0.098,0.116-0.129,0.215-0.088
		c0.309,0.129,0.63,0.237,0.963,0.327c0.333,0.089,0.654,0.133,0.965,0.133c0.493,0,0.839-0.085,1.045-0.256
		c0.203-0.169,0.306-0.381,0.306-0.637c0-0.139-0.027-0.26-0.077-0.365c-0.054-0.104-0.135-0.199-0.243-0.289
		c-0.109-0.089-0.25-0.17-0.418-0.256c-0.167-0.08-0.368-0.166-0.602-0.26c-0.348-0.136-0.663-0.273-0.939-0.411
		c-0.28-0.136-0.513-0.284-0.699-0.446c-0.188-0.159-0.331-0.341-0.43-0.54C303.401,5.428,303.35,5.2,303.35,4.946"/>
	<path fill="#888888" d="M310.916,4.789c0.744,0,1.296,0.191,1.654,0.581c0.358,0.385,0.538,0.913,0.538,1.59
		c0,0.168-0.018,0.308-0.059,0.421c-0.039,0.11-0.092,0.2-0.166,0.265c-0.069,0.064-0.152,0.111-0.246,0.139
		c-0.094,0.024-0.195,0.038-0.304,0.038h-2.581c0.006,0.256,0.045,0.468,0.116,0.642c0.071,0.173,0.166,0.315,0.292,0.424
		c0.122,0.106,0.263,0.184,0.424,0.23c0.163,0.044,0.337,0.066,0.525,0.066c0.207,0,0.411-0.024,0.609-0.08
		c0.201-0.049,0.377-0.111,0.525-0.184c0.103-0.045,0.175-0.026,0.213,0.06l0.263,0.559c0.044,0.104,0.021,0.181-0.067,0.227
		c-0.247,0.151-0.515,0.254-0.807,0.313c-0.29,0.059-0.568,0.087-0.835,0.087c-0.78,0-1.381-0.212-1.794-0.638
		c-0.414-0.425-0.621-1.099-0.621-2.02c0-0.434,0.059-0.816,0.176-1.154c0.115-0.336,0.274-0.621,0.479-0.854
		c0.204-0.232,0.448-0.409,0.733-0.529C310.269,4.851,310.58,4.789,310.916,4.789 M310.936,5.74c-0.175,0-0.329,0.035-0.466,0.104
		c-0.133,0.069-0.251,0.162-0.349,0.278c-0.098,0.119-0.174,0.253-0.234,0.405c-0.058,0.151-0.089,0.307-0.096,0.471h2.229
		c0-0.178-0.016-0.342-0.048-0.493c-0.031-0.149-0.088-0.28-0.168-0.395c-0.081-0.117-0.192-0.205-0.33-0.271
		C311.335,5.774,311.157,5.74,310.936,5.74"/>
	<path fill="#888888" d="M317.804,9.589c0,0.443-0.055,0.822-0.162,1.14c-0.111,0.312-0.275,0.574-0.493,0.785
		c-0.215,0.209-0.485,0.37-0.802,0.488c-0.321,0.119-0.697,0.206-1.121,0.265c-0.11,0.02-0.172-0.015-0.186-0.107l-0.098-0.745
		c-0.005-0.085,0.034-0.138,0.118-0.157c0.237-0.038,0.456-0.087,0.655-0.142c0.196-0.055,0.366-0.134,0.504-0.228
		c0.139-0.095,0.246-0.212,0.319-0.354c0.072-0.14,0.111-0.314,0.111-0.524V9.95c-0.188,0.06-0.39,0.104-0.607,0.133
		c-0.215,0.03-0.415,0.045-0.594,0.045c-0.384,0-0.714-0.064-0.991-0.19c-0.277-0.127-0.507-0.307-0.687-0.535
		c-0.183-0.227-0.316-0.502-0.403-0.819c-0.086-0.318-0.13-0.67-0.13-1.053c0-0.396,0.048-0.759,0.146-1.092
		c0.095-0.334,0.245-0.621,0.444-0.858c0.201-0.24,0.454-0.427,0.763-0.564c0.307-0.139,0.673-0.207,1.099-0.207
		c0.33,0,0.667,0.025,1.01,0.073c0.344,0.048,0.66,0.139,0.95,0.271c0.064,0.032,0.107,0.064,0.127,0.101
		c0.019,0.037,0.027,0.084,0.027,0.134V9.589z M314.401,7.474c0,0.578,0.108,1.002,0.329,1.27c0.22,0.271,0.522,0.404,0.912,0.404
		c0.104,0,0.247-0.01,0.43-0.03c0.187-0.018,0.384-0.059,0.587-0.118V5.89c-0.154-0.047-0.313-0.081-0.479-0.098
		c-0.165-0.022-0.314-0.032-0.442-0.032c-0.2,0-0.384,0.032-0.548,0.094c-0.164,0.063-0.305,0.161-0.422,0.296
		c-0.115,0.134-0.207,0.31-0.271,0.527C314.434,6.891,314.401,7.157,314.401,7.474"/>
	<path fill="#888888" d="M320.86,9.186c0.071,0,0.172-0.003,0.307-0.005c0.13-0.004,0.284-0.021,0.46-0.053V5.063
		c0-0.071,0.013-0.117,0.039-0.137c0.023-0.02,0.074-0.031,0.145-0.031h0.756c0.065,0,0.112,0.012,0.142,0.031
		s0.045,0.065,0.045,0.137v4.201c0,0.229-0.052,0.411-0.154,0.546c-0.105,0.133-0.271,0.225-0.497,0.269
		c-0.083,0.014-0.183,0.025-0.291,0.04c-0.109,0.01-0.225,0.021-0.339,0.026c-0.117,0.008-0.229,0.014-0.341,0.016
		c-0.109,0.005-0.205,0.005-0.292,0.005c-0.439,0-0.811-0.044-1.114-0.137c-0.303-0.093-0.55-0.237-0.737-0.435
		c-0.186-0.201-0.325-0.462-0.413-0.781c-0.084-0.32-0.13-0.708-0.13-1.159V5.063c0-0.071,0.012-0.117,0.039-0.136
		c0.026-0.021,0.076-0.032,0.147-0.032h0.754c0.064,0,0.113,0.012,0.143,0.031c0.028,0.02,0.041,0.065,0.041,0.137v2.611
		c0,0.254,0.017,0.477,0.051,0.667c0.032,0.189,0.095,0.348,0.189,0.472c0.093,0.123,0.225,0.218,0.392,0.278
		C320.368,9.153,320.59,9.186,320.86,9.186"/>
	<path fill="#888888" d="M324.571,10.029c-0.031,0.021-0.079,0.029-0.15,0.029h-0.749c-0.063,0-0.11-0.008-0.14-0.029
		c-0.028-0.02-0.044-0.063-0.044-0.137v-4.21c0-0.262,0.044-0.458,0.131-0.586c0.088-0.126,0.271-0.211,0.55-0.249
		c0.114-0.014,0.232-0.023,0.353-0.035c0.12-0.007,0.241-0.013,0.363-0.013c0.396,0,0.776,0.051,1.141,0.156
		c0.364,0.103,0.697,0.281,0.995,0.529c0.044,0.033,0.064,0.066,0.063,0.092c-0.006,0.031-0.014,0.061-0.034,0.096l-0.445,0.646
		c-0.035,0.053-0.064,0.077-0.099,0.069c-0.031-0.006-0.071-0.025-0.116-0.059C326.2,6.168,326,6.04,325.782,5.952
		c-0.215-0.088-0.455-0.133-0.711-0.133c-0.077,0-0.155,0.004-0.234,0.011c-0.077,0.007-0.152,0.015-0.222,0.03v4.032
		C324.615,9.966,324.599,10.01,324.571,10.029"/>
	<path fill="#888888" d="M331.653,7.458c0,0.87-0.199,1.54-0.598,2.007c-0.396,0.468-0.989,0.702-1.778,0.702
		c-0.783,0-1.367-0.229-1.751-0.683c-0.386-0.453-0.577-1.121-0.577-1.997c0-0.433,0.059-0.813,0.176-1.147
		c0.114-0.334,0.276-0.617,0.483-0.845s0.454-0.403,0.742-0.524s0.606-0.181,0.955-0.181c0.771,0,1.354,0.234,1.75,0.71
		C331.454,5.975,331.653,6.627,331.653,7.458 M330.499,7.486c0-0.234-0.018-0.459-0.054-0.668c-0.034-0.211-0.096-0.398-0.185-0.56
		c-0.086-0.16-0.207-0.286-0.359-0.381c-0.15-0.091-0.344-0.138-0.575-0.138c-0.208,0-0.388,0.046-0.545,0.134
		c-0.155,0.088-0.284,0.209-0.387,0.361c-0.102,0.15-0.18,0.332-0.229,0.542c-0.048,0.212-0.072,0.439-0.072,0.682
		c0,0.547,0.088,0.979,0.263,1.29c0.173,0.311,0.483,0.466,0.932,0.466c0.226,0,0.414-0.046,0.57-0.143
		c0.156-0.095,0.281-0.222,0.374-0.38c0.094-0.157,0.163-0.34,0.205-0.549C330.478,7.937,330.499,7.717,330.499,7.486"/>
	<path fill="#888888" d="M335.677,8.616c0,0.262-0.05,0.491-0.146,0.688c-0.099,0.197-0.232,0.358-0.408,0.486
		c-0.168,0.129-0.37,0.221-0.604,0.285c-0.237,0.062-0.487,0.093-0.761,0.093c-0.155,0-0.321-0.009-0.496-0.025
		c-0.175-0.018-0.348-0.042-0.524-0.074c-0.174-0.031-0.343-0.075-0.506-0.133c-0.163-0.054-0.311-0.123-0.445-0.199
		c-0.099-0.054-0.122-0.132-0.07-0.235l0.235-0.551c0.03-0.06,0.063-0.096,0.094-0.111c0.035-0.016,0.085-0.011,0.157,0.024
		c0.231,0.11,0.492,0.196,0.776,0.259c0.283,0.062,0.534,0.093,0.756,0.093c0.271,0,0.477-0.055,0.61-0.161
		c0.135-0.107,0.204-0.248,0.204-0.418c0-0.189-0.088-0.339-0.263-0.452c-0.172-0.11-0.437-0.23-0.785-0.361
		c-0.264-0.099-0.496-0.198-0.693-0.295c-0.196-0.102-0.361-0.209-0.488-0.329c-0.131-0.12-0.229-0.257-0.298-0.406
		c-0.069-0.15-0.101-0.325-0.101-0.522c0-0.215,0.038-0.412,0.116-0.593c0.08-0.18,0.194-0.337,0.347-0.466
		c0.156-0.13,0.346-0.233,0.571-0.308c0.227-0.076,0.491-0.114,0.791-0.114c0.268,0,0.54,0.023,0.813,0.073
		c0.272,0.048,0.535,0.126,0.786,0.23c0.052,0.026,0.082,0.061,0.094,0.1c0.01,0.038,0.007,0.084-0.005,0.139l-0.225,0.557
		c-0.019,0.054-0.042,0.083-0.074,0.088c-0.028,0.007-0.068,0-0.119-0.019c-0.251-0.092-0.475-0.154-0.666-0.186
		c-0.19-0.033-0.395-0.05-0.615-0.05c-0.24,0-0.414,0.05-0.523,0.15c-0.112,0.103-0.165,0.217-0.165,0.341
		c0,0.09,0.018,0.17,0.052,0.234c0.037,0.066,0.095,0.126,0.171,0.181c0.077,0.059,0.178,0.114,0.305,0.172
		c0.128,0.06,0.282,0.121,0.463,0.189c0.206,0.076,0.409,0.16,0.605,0.25c0.197,0.087,0.37,0.193,0.525,0.318
		c0.15,0.123,0.274,0.271,0.366,0.441C335.63,8.168,335.677,8.374,335.677,8.616"/>
</g>
<g>
	<g>
		<path fill="#888888" d="M374.327,14.013c0,0.453-0.116,0.846-0.349,1.178c-0.231,0.331-0.555,0.585-0.971,0.761
			c-0.414,0.177-0.891,0.265-1.428,0.265c-0.15,0-0.334-0.01-0.552-0.029c-0.219-0.02-0.508-0.072-0.869-0.159
			c-0.36-0.088-0.737-0.216-1.127-0.387v-1.779c0.365,0.227,0.726,0.415,1.08,0.564c0.354,0.15,0.733,0.226,1.138,0.226
			c0.373,0,0.615-0.062,0.726-0.186c0.109-0.124,0.164-0.24,0.164-0.349c0-0.195-0.094-0.359-0.282-0.494s-0.463-0.273-0.822-0.416
			c-0.396-0.167-0.746-0.35-1.046-0.546c-0.3-0.198-0.545-0.444-0.735-0.741c-0.189-0.296-0.285-0.647-0.285-1.052
			c0-0.391,0.097-0.743,0.288-1.06c0.191-0.315,0.484-0.567,0.879-0.756s0.876-0.282,1.444-0.282c0.404,0,0.778,0.039,1.122,0.117
			c0.344,0.079,0.627,0.167,0.851,0.265c0.223,0.098,0.376,0.175,0.46,0.23v1.7c-0.297-0.213-0.627-0.403-0.991-0.57
			s-0.755-0.251-1.169-0.251c-0.272,0-0.47,0.053-0.592,0.156c-0.122,0.105-0.184,0.234-0.184,0.388
			c0,0.144,0.062,0.267,0.184,0.371s0.34,0.232,0.653,0.383c0.559,0.261,1.005,0.496,1.34,0.706c0.335,0.209,0.598,0.45,0.787,0.725
			C374.231,13.264,374.327,13.604,374.327,14.013"/>
		<path fill="#888888" d="M381.038,12.557c0-0.268-0.04-0.512-0.118-0.732s-0.197-0.412-0.357-0.575
			c-0.159-0.163-0.354-0.289-0.583-0.38s-0.495-0.137-0.797-0.137c-0.575,0-1.027,0.168-1.356,0.503
			c-0.328,0.337-0.493,0.776-0.493,1.321s0.166,0.985,0.496,1.323c0.331,0.338,0.782,0.507,1.354,0.507
			c0.395,0,0.73-0.078,1.007-0.234c0.278-0.156,0.488-0.372,0.633-0.647C380.967,13.229,381.038,12.913,381.038,12.557
			 M383.228,12.557c0,0.665-0.153,1.276-0.46,1.834c-0.308,0.559-0.764,1.003-1.369,1.332c-0.607,0.328-1.346,0.493-2.216,0.493
			c-0.88,0-1.625-0.172-2.235-0.515c-0.609-0.342-1.063-0.793-1.359-1.351c-0.296-0.559-0.443-1.157-0.443-1.794
			c0-0.64,0.147-1.239,0.441-1.796c0.295-0.557,0.748-1.005,1.359-1.346c0.611-0.342,1.357-0.512,2.237-0.512
			c0.658,0,1.245,0.098,1.761,0.293s0.939,0.46,1.271,0.794s0.584,0.723,0.756,1.166C383.142,11.601,383.228,12.067,383.228,12.557"
			/>
		<path fill="#888888" d="M389.314,12.598c0-0.579-0.11-1.03-0.332-1.354c-0.221-0.324-0.486-0.54-0.796-0.65
			c-0.311-0.109-0.626-0.164-0.948-0.164h-0.915v4.219h0.915c0.562,0,1.048-0.134,1.459-0.401S389.314,13.431,389.314,12.598
			 M391.498,12.69c0,0.729-0.133,1.315-0.398,1.757c-0.265,0.442-0.578,0.801-0.938,1.074c-0.511,0.401-1.225,0.602-2.143,0.602
			h-0.108h-3.735V9.001h2.959c0.446,0,0.827,0.022,1.145,0.069c0.316,0.046,0.602,0.111,0.854,0.195
			c0.255,0.084,0.47,0.178,0.648,0.282c0.178,0.104,0.337,0.218,0.478,0.337c0.243,0.198,0.456,0.434,0.64,0.704
			s0.328,0.584,0.437,0.94S391.498,12.272,391.498,12.69"/>
		<rect x="392.376" y="9.002" fill="#888888" width="2.148" height="7.121"/>
		<polygon fill="#888888" points="403.831,16.123 401.683,16.123 401.683,11.997 399.746,14.387 399.576,14.387 397.634,11.997 
			397.634,16.123 395.547,16.123 395.547,9.001 397.495,9.001 399.684,11.673 401.884,9.001 403.831,9.001 		"/>
		<path fill="#888888" d="M409.684,13.44l-1.043-2.6l-1.054,2.6H409.684z M412.957,16.123h-2.199l-0.581-1.444h-3.094l-0.59,1.444
			h-2.2l3.15-7.122h2.374L412.957,16.123z"/>
		<path fill="#888888" d="M419.516,15.589c-0.295,0.153-0.596,0.277-0.904,0.37c-0.308,0.092-0.619,0.158-0.933,0.197
			c-0.313,0.039-0.638,0.059-0.974,0.059c-0.62,0-1.176-0.085-1.668-0.256c-0.491-0.172-0.918-0.424-1.279-0.759
			c-0.361-0.333-0.632-0.725-0.813-1.171c-0.179-0.447-0.269-0.938-0.269-1.473c0-0.613,0.106-1.15,0.318-1.61
			c0.212-0.462,0.51-0.844,0.892-1.148c0.382-0.306,0.816-0.53,1.305-0.676s1.003-0.219,1.545-0.219c0.808,0,1.725,0.181,2.748,0.54
			v1.891c-0.353-0.219-0.7-0.401-1.045-0.548c-0.345-0.146-0.75-0.218-1.216-0.218c-0.414,0-0.802,0.082-1.161,0.247
			c-0.359,0.164-0.649,0.398-0.867,0.703c-0.22,0.305-0.33,0.661-0.33,1.069c0,0.359,0.096,0.688,0.288,0.989
			c0.191,0.3,0.458,0.538,0.799,0.714c0.341,0.177,0.726,0.265,1.154,0.265c0.345,0,0.673-0.042,0.981-0.126
			c0.308-0.084,0.567-0.178,0.777-0.279c0.211-0.104,0.428-0.225,0.65-0.365V15.589z"/>
		<path fill="#888888" d="M420.981,14.846v0.299h0.145c0.083,0,0.142-0.011,0.176-0.034c0.035-0.022,0.054-0.06,0.054-0.109
			c0-0.056-0.019-0.097-0.054-0.121c-0.039-0.024-0.101-0.034-0.183-0.034H420.981z M420.84,14.733h0.279
			c0.127,0,0.222,0.021,0.283,0.063c0.066,0.041,0.099,0.103,0.099,0.187c0,0.063-0.021,0.118-0.057,0.161
			c-0.036,0.043-0.086,0.069-0.151,0.079l0.201,0.416h-0.157l-0.181-0.399h-0.175v0.399h-0.142V14.733z"/>
		<path fill="#888888" d="M421.13,14.469c-0.113,0-0.224,0.025-0.318,0.073c-0.099,0.047-0.185,0.116-0.255,0.207
			c-0.051,0.064-0.089,0.137-0.117,0.214c-0.025,0.076-0.039,0.154-0.039,0.237c0,0.096,0.02,0.189,0.054,0.28
			c0.037,0.087,0.091,0.165,0.159,0.232c0.07,0.07,0.15,0.126,0.239,0.165c0.177,0.073,0.371,0.075,0.554,0
			c0.091-0.037,0.173-0.09,0.242-0.159c0.073-0.067,0.124-0.144,0.161-0.233c0.036-0.089,0.055-0.186,0.055-0.285
			c0-0.094-0.018-0.188-0.055-0.277c-0.035-0.089-0.088-0.166-0.156-0.236s-0.149-0.125-0.237-0.161
			C421.327,14.487,421.229,14.469,421.13,14.469 M421.13,16.069c-0.112,0-0.222-0.021-0.33-0.067
			c-0.104-0.046-0.2-0.111-0.282-0.191c-0.08-0.083-0.144-0.175-0.186-0.281c-0.045-0.106-0.065-0.216-0.065-0.329
			c0-0.098,0.015-0.19,0.046-0.281c0.031-0.093,0.078-0.177,0.139-0.254c0.084-0.106,0.184-0.188,0.301-0.244
			c0.213-0.105,0.486-0.115,0.716-0.021c0.104,0.045,0.199,0.107,0.279,0.193c0.084,0.079,0.145,0.174,0.188,0.278
			C421.978,14.978,422,15.088,422,15.2c0,0.117-0.023,0.23-0.065,0.336c-0.045,0.108-0.11,0.201-0.191,0.278
			c-0.082,0.08-0.178,0.144-0.284,0.188C421.354,16.048,421.243,16.069,421.13,16.069"/>
	</g>
	<g>
		<path fill="#888888" d="M364.286,9.201h-2.055V8.468h-0.726h-0.924v0.733h-1.846L356,12.257v4.275h10.813v-4.275L364.286,9.201z
			 M366.08,15.799h-4.216V13.05h4.216V15.799z"/>
		<polygon fill="#666666" points="365.916,12.307 363.991,10.099 359.966,10.099 361.898,12.307 		"/>
		<polygon fill="#AAAAAA" points="360.933,12.31 359.045,10.093 357.106,12.31 		"/>
		<rect x="356.905" y="13.079" fill="#AAAAAA" width="4.217" height="2.779"/>
	</g>
</g>
<g>
	<path fill="#888888" d="M486.09,13.459h-0.92v-0.344h-0.803v0.344h-1.042l-1.594,1.606v2.405h5.845v-2.405L486.09,13.459z
		 M487.232,17.126h-2.292v-1.604h2.292V17.126z"/>
	<polygon fill="#AAAAAA" points="482.282,15.063 484.371,15.063 483.325,13.982 	"/>
	<polygon fill="#666666" points="483.726,13.918 484.863,15.063 487.138,15.063 486.001,13.918 	"/>
	<rect x="482.19" y="15.522" fill="#AAAAAA" width="2.292" height="1.604"/>
	<path fill="#888888" d="M450.675,7.5h-2.203c-0.419,0-0.758,0.387-0.758,0.82l0.002,1.242h-1.544l0.002-1.242
		c0-0.434-0.34-0.82-0.758-0.82h-2.181c-0.419,0-0.812,0.373-0.812,0.807v8.397c0,0.435,0.393,0.767,0.812,0.767h2.181
		c0.418,0,0.758-0.364,0.758-0.798l-0.002-1.036h1.544l-0.002,1.036c0,0.434,0.339,0.798,0.758,0.798h2.179
		c0.419,0,0.712-0.332,0.712-0.767V8.307c0-0.434-0.293-0.807-0.712-0.807"/>
	<path fill="#888888" d="M472.428,8.296c-0.013-0.424-0.358-0.766-0.771-0.766c-0.193,0-0.374,0.076-0.509,0.201l-3.338,3.098
		c-0.041,0.044-0.099,0.073-0.163,0.073s-0.122-0.029-0.164-0.073l-3.335-3.098c-0.133-0.125-0.31-0.201-0.504-0.201
		c-0.414,0-0.721,0.342-0.733,0.766c0,0.003,0.026,0.005,0.026,0.009v8.399c0,0.435,0.285,0.767,0.704,0.767h1.894
		c0.419,0,0.726-0.332,0.726-0.767v-0.806v-0.001v-0.005c0-0.131,0.119-0.237,0.245-0.237c0.087,0,0.172,0.054,0.207,0.128
		c0.019,0.027,0.723,1.289,0.723,1.289l0.004,0.002l0.001,0.004c0.007,0.016,0.02,0.029,0.027,0.043
		c0.005,0.005,0.007,0.008,0.009,0.011c0.006,0.007,0.01,0.01,0.018,0.016c0.004,0.005,0.007,0.007,0.014,0.013
		c0.005,0.004,0.01,0.007,0.014,0.013c0.011,0.007,0.021,0.013,0.031,0.016c0.006,0.001,0.007,0.003,0.011,0.005
		c0.011,0.004,0.021,0.007,0.028,0.009c0.006,0.001,0.007,0.001,0.012,0.004c0.014,0.002,0.027,0.005,0.043,0.005
		c0.014,0,0.026-0.003,0.039-0.005c0.005-0.003,0.008-0.003,0.013-0.004c0.01-0.002,0.02-0.003,0.028-0.009
		c0.005-0.002,0.008-0.004,0.012-0.005c0.011-0.003,0.022-0.009,0.031-0.016c0.006-0.006,0.01-0.009,0.014-0.013
		c0.005-0.006,0.011-0.008,0.014-0.013c0.008-0.006,0.012-0.009,0.018-0.016c0.004-0.003,0.006-0.006,0.008-0.011
		c0.01-0.014,0.019-0.027,0.027-0.043l0.001-0.004l0.002-0.002c0,0,0.7-1.262,0.715-1.289c0.04-0.074,0.12-0.128,0.209-0.128
		c0.128,0,0.234,0.106,0.234,0.237v0.005v0.001v0.806c0,0.435,0.328,0.767,0.744,0.767h0.001h1.894c0.418,0,0.8-0.332,0.8-0.767
		V8.305C472.449,8.301,472.428,8.299,472.428,8.296"/>
	<path fill="#888888" d="M482.01,8.299c0-0.435-0.34-0.799-0.759-0.799h-0.008h-2.153c-0.283,0-0.567,0.186-0.682,0.424v0.001
		l0.009,0.004c-0.001,0.003,0.004,0.005,0.001,0.009l-0.542,0.97c-0.026,0.064-0.077,0.113-0.141,0.135l-0.002,0.002
		c-0.011,0.003-0.018,0.005-0.026,0.005l-0.003,0.002c-0.014,0.002-0.024,0.005-0.036,0.005c-0.013,0-0.026-0.003-0.038-0.005
		c-0.001-0.002-0.003-0.002-0.003-0.002c-0.01,0-0.018-0.002-0.024-0.005c-0.002-0.001-0.005-0.001-0.005-0.001
		c-0.064-0.022-0.117-0.071-0.142-0.136l-0.546-0.97c-0.001-0.004,0.005-0.006,0.004-0.009l0.004-0.004V7.924
		c-0.114-0.238-0.391-0.424-0.673-0.424h-0.002h-0.139h-2.015h-0.008c-0.417,0-0.756,0.364-0.756,0.799
		c0,0.179,0.071,0.322,0.127,0.42l2.893,4.687v0.824v2.475c0,0.435,0.293,0.767,0.712,0.767h1.22c0.419,0,0.704-0.332,0.704-0.767
		v-2.475v-0.824l2.898-4.687C481.932,8.621,482.01,8.478,482.01,8.299"/>
	<path fill="#888888" d="M457.146,14.189c-0.896,0-1.621-0.753-1.621-1.681c0-0.927,0.726-1.677,1.621-1.677
		c0.896,0,1.622,0.75,1.622,1.677C458.769,13.437,458.043,14.189,457.146,14.189 M457.146,7.521c-2.663,0-4.821,2.232-4.821,4.988
		c0,2.757,2.158,4.991,4.821,4.991s4.819-2.234,4.819-4.991C461.966,9.753,459.81,7.521,457.146,7.521"/>
</g>
<g>
	<polygon fill="#888888" points="522.345,9.562 517.112,9.562 517.112,11.12 518.757,11.12 518.757,15.877 520.701,15.877 
		520.701,11.12 522.345,11.12 522.345,9.562 	"/>
	<polygon fill="#888888" points="528.919,11.12 530.563,11.12 530.563,15.877 532.507,15.877 532.506,11.12 534.151,11.12 
		534.151,9.562 528.919,9.562 528.919,11.12 	"/>
	<polygon fill="#888888" points="534.622,11.12 536.268,11.12 536.268,15.877 538.212,15.877 538.212,11.12 539.856,11.12 
		539.856,9.562 534.622,9.562 534.622,11.12 	"/>
	<path fill="#888888" d="M544.39,13.417c0,0.352-0.096,0.622-0.287,0.813c-0.188,0.19-0.451,0.284-0.785,0.284
		c-0.338,0-0.604-0.096-0.795-0.288c-0.188-0.194-0.282-0.466-0.282-0.81V9.562h-1.94v3.765c0,0.311,0.06,0.667,0.181,1.069
		c0.074,0.25,0.211,0.491,0.411,0.728c0.204,0.236,0.427,0.418,0.671,0.548c0.242,0.125,0.546,0.21,0.903,0.253
		c0.364,0.043,0.7,0.064,1.005,0.064c0.529,0,0.983-0.07,1.36-0.211c0.273-0.1,0.531-0.274,0.778-0.521
		c0.248-0.249,0.429-0.541,0.544-0.869c0.117-0.334,0.177-0.687,0.176-1.061V9.562h-1.939V13.417L544.39,13.417z"/>
	<path fill="#888888" d="M552.246,12.887c-0.166-0.278-0.434-0.511-0.802-0.698c-0.366-0.189-0.975-0.376-1.825-0.561
		c-0.344-0.071-0.559-0.147-0.65-0.232c-0.096-0.08-0.143-0.17-0.143-0.271c0-0.138,0.057-0.254,0.171-0.348
		c0.115-0.098,0.285-0.147,0.512-0.147c0.273,0,0.487,0.064,0.643,0.193c0.156,0.131,0.261,0.337,0.31,0.621l1.833-0.106
		c-0.081-0.656-0.332-1.132-0.756-1.432c-0.422-0.301-1.033-0.452-1.838-0.452c-0.654,0.001-1.171,0.085-1.549,0.25
		c-0.374,0.165-0.655,0.391-0.845,0.682c-0.185,0.286-0.278,0.592-0.278,0.918c0,0.493,0.182,0.898,0.549,1.219
		c0.363,0.319,0.971,0.573,1.824,0.767c0.52,0.114,0.853,0.237,0.996,0.366c0.142,0.128,0.214,0.274,0.214,0.438
		c0,0.173-0.077,0.326-0.228,0.457c-0.149,0.128-0.362,0.194-0.64,0.194c-0.372,0-0.658-0.128-0.858-0.384
		c-0.123-0.157-0.204-0.388-0.244-0.689l-1.85,0.116c0.055,0.639,0.287,1.165,0.699,1.577c0.413,0.413,1.153,0.62,2.223,0.619
		c0.609,0,1.114-0.086,1.516-0.262c0.399-0.179,0.711-0.438,0.935-0.78c0.225-0.341,0.336-0.715,0.336-1.119
		C552.5,13.478,552.415,13.165,552.246,12.887L552.246,12.887z"/>
	<path fill="#888888" d="M525.623,9.471c-1.826,0-3.308,1.486-3.308,3.32c0,1.832,1.481,3.319,3.308,3.319s3.307-1.487,3.307-3.319
		C528.93,10.957,527.449,9.471,525.623,9.471L525.623,9.471z M525.623,14.45c-0.913,0-1.653-0.743-1.653-1.659
		c0-0.917,0.74-1.661,1.653-1.661c0.912,0,1.653,0.744,1.653,1.661C527.276,13.707,526.535,14.45,525.623,14.45L525.623,14.45z"/>
	<path fill="#888888" d="M510.295,9.706c0-0.595,0.481-1.076,1.075-1.076s1.074,0.481,1.074,1.076c0,0.593-0.48,1.074-1.074,1.073
		C510.776,10.779,510.295,10.299,510.295,9.706L510.295,9.706z"/>
	<path fill="#AAAAAA" d="M507.93,10.016c0-0.527,0.427-0.955,0.954-0.955c0.529,0,0.957,0.428,0.957,0.955
		c0,0.528-0.428,0.955-0.957,0.955C508.356,10.971,507.93,10.544,507.93,10.016L507.93,10.016z"/>
	<path fill="#AAAAAA" d="M512.898,10.016c0-0.527,0.428-0.955,0.955-0.955c0.528,0,0.956,0.428,0.956,0.955
		c0,0.528-0.428,0.955-0.956,0.956C513.326,10.972,512.898,10.544,512.898,10.016L512.898,10.016z"/>
	<path fill="#AAAAAA" d="M512.898,14.984c0-0.527,0.428-0.955,0.955-0.955c0.529,0,0.956,0.428,0.956,0.955
		s-0.427,0.955-0.956,0.955C513.326,15.939,512.898,15.512,512.898,14.984L512.898,14.984z"/>
	<path fill="#AAAAAA" d="M507.93,14.984c0-0.527,0.427-0.955,0.954-0.955c0.529,0,0.956,0.428,0.956,0.955s-0.427,0.955-0.956,0.955
		C508.356,15.939,507.93,15.512,507.93,14.984L507.93,14.984z"/>
	<path fill="#666666" d="M510.176,12.5c0-0.66,0.535-1.194,1.194-1.194s1.193,0.534,1.193,1.194c0,0.659-0.534,1.194-1.193,1.194
		S510.176,13.159,510.176,12.5L510.176,12.5z"/>
	<path fill="#888888" d="M510.295,15.295c0-0.594,0.481-1.076,1.075-1.076s1.074,0.482,1.074,1.076s-0.48,1.075-1.074,1.075
		S510.295,15.889,510.295,15.295L510.295,15.295z"/>
	<path fill="#888888" d="M513.09,12.5c0-0.594,0.481-1.075,1.075-1.075s1.075,0.48,1.075,1.075c0,0.594-0.481,1.075-1.075,1.075
		S513.09,13.094,513.09,12.5L513.09,12.5z"/>
	<path fill="#888888" d="M507.5,12.5c0-0.594,0.481-1.075,1.075-1.075s1.075,0.481,1.075,1.075s-0.481,1.075-1.075,1.075
		S507.5,13.094,507.5,12.5L507.5,12.5z"/>
</g>
</svg>
