<?xml version="1.0" encoding="utf-8"?>
<!-- Generator: Adobe Illustrator 16.0.0, SVG Export Plug-In . SVG Version: 6.00 Build 0)  -->
<svg version="1.2" baseProfile="tiny" id="Layer_1" xmlns="http://www.w3.org/2000/svg" xmlns:xlink="http://www.w3.org/1999/xlink"
	 x="0px" y="0px" width="81.841px" height="10px" viewBox="0 0 81.841 10" xml:space="preserve">
<g>
	<g>
		<path fill="#888888" d="M22.726,6.876c0,0.562-0.144,1.049-0.433,1.46c-0.287,0.411-0.688,0.726-1.204,0.943
			c-0.513,0.22-1.104,0.328-1.771,0.328c-0.187,0-0.414-0.012-0.684-0.036c-0.271-0.024-0.629-0.09-1.078-0.197
			c-0.447-0.109-0.914-0.268-1.397-0.479V6.688c0.453,0.28,0.9,0.515,1.339,0.699c0.439,0.187,0.909,0.28,1.411,0.28
			c0.463,0,0.763-0.076,0.9-0.23c0.136-0.153,0.203-0.298,0.203-0.433c0-0.242-0.116-0.445-0.35-0.612
			c-0.234-0.167-0.574-0.339-1.02-0.516C18.152,5.67,17.719,5.443,17.347,5.2c-0.372-0.246-0.675-0.551-0.912-0.919
			c-0.235-0.367-0.354-0.803-0.354-1.304c0-0.484,0.12-0.921,0.357-1.314c0.238-0.391,0.601-0.704,1.09-0.937
			c0.489-0.234,1.086-0.35,1.791-0.35c0.501,0,0.965,0.048,1.392,0.145c0.426,0.098,0.777,0.207,1.055,0.328
			c0.276,0.121,0.466,0.217,0.57,0.286v2.108c-0.368-0.264-0.777-0.5-1.229-0.707s-0.936-0.311-1.45-0.311
			c-0.338,0-0.583,0.065-0.734,0.194c-0.151,0.13-0.228,0.291-0.228,0.48c0,0.178,0.076,0.331,0.228,0.46
			c0.151,0.129,0.421,0.288,0.811,0.475c0.692,0.323,1.246,0.615,1.661,0.875c0.416,0.259,0.741,0.558,0.976,0.898
			C22.607,5.947,22.726,6.369,22.726,6.876"/>
		<path fill="#888888" d="M31.047,5.07c0-0.332-0.049-0.635-0.146-0.908c-0.097-0.274-0.245-0.511-0.443-0.713
			C30.26,3.247,30.02,3.09,29.735,2.978c-0.285-0.112-0.614-0.169-0.988-0.169c-0.713,0-1.274,0.208-1.682,0.624
			c-0.407,0.418-0.612,0.963-0.612,1.639s0.206,1.222,0.615,1.641c0.411,0.419,0.97,0.629,1.678,0.629
			c0.489,0,0.906-0.098,1.249-0.291c0.345-0.193,0.605-0.461,0.785-0.803C30.959,5.903,31.047,5.513,31.047,5.07 M33.763,5.07
			c0,0.824-0.19,1.583-0.57,2.274c-0.382,0.692-0.947,1.243-1.698,1.651c-0.753,0.407-1.669,0.611-2.748,0.611
			c-1.091,0-2.015-0.213-2.771-0.638c-0.756-0.424-1.318-0.983-1.686-1.675c-0.367-0.692-0.55-1.436-0.55-2.225
			c0-0.793,0.183-1.537,0.547-2.227c0.366-0.69,0.928-1.246,1.686-1.668c0.758-0.424,1.683-0.635,2.774-0.635
			c0.816,0,1.544,0.121,2.184,0.363c0.639,0.242,1.165,0.57,1.577,0.984c0.412,0.415,0.724,0.896,0.937,1.446
			C33.656,3.885,33.763,4.463,33.763,5.07"/>
		<path fill="#888888" d="M41.311,5.121c0-0.718-0.137-1.277-0.412-1.678c-0.273-0.402-0.603-0.67-0.987-0.807
			c-0.385-0.136-0.776-0.204-1.176-0.204h-1.135v5.231h1.135c0.696,0,1.299-0.166,1.809-0.498
			C41.055,6.835,41.311,6.154,41.311,5.121 M44.018,5.236c0,0.904-0.164,1.631-0.494,2.179c-0.328,0.548-0.717,0.992-1.162,1.332
			c-0.633,0.497-1.519,0.745-2.657,0.745H39.57h-4.632V0.661h3.669c0.554,0,1.026,0.028,1.419,0.086
			c0.392,0.057,0.746,0.138,1.06,0.242c0.316,0.104,0.583,0.221,0.804,0.35c0.221,0.129,0.418,0.27,0.592,0.418
			c0.302,0.246,0.565,0.538,0.793,0.873c0.229,0.335,0.407,0.724,0.541,1.166C43.951,4.238,44.018,4.718,44.018,5.236"/>
		<rect x="45.106" y="0.663" fill="#888888" width="2.664" height="8.83"/>
		<polygon fill="#888888" points="59.311,9.492 56.646,9.492 56.646,4.376 54.246,7.34 54.035,7.34 51.627,4.376 51.627,9.492 
			49.039,9.492 49.039,0.661 51.455,0.661 54.168,3.974 56.896,0.661 59.311,0.661 		"/>
		<path fill="#888888" d="M66.568,6.166l-1.293-3.224l-1.307,3.224H66.568z M70.627,9.492H67.9L67.18,7.701h-3.836l-0.731,1.791
			h-2.729l3.907-8.831h2.943L70.627,9.492z"/>
		<path fill="#888888" d="M78.76,8.83c-0.365,0.19-0.738,0.344-1.121,0.459c-0.381,0.114-0.768,0.196-1.156,0.245
			c-0.388,0.048-0.791,0.072-1.207,0.072c-0.77,0-1.459-0.105-2.068-0.317c-0.609-0.213-1.139-0.525-1.587-0.94
			c-0.448-0.413-0.783-0.898-1.007-1.452c-0.223-0.555-0.334-1.163-0.334-1.826c0-0.761,0.133-1.427,0.396-1.997
			c0.263-0.573,0.632-1.046,1.105-1.424c0.474-0.379,1.013-0.658,1.618-0.838c0.605-0.181,1.243-0.271,1.916-0.271
			c1,0,2.138,0.224,3.406,0.67v2.344c-0.437-0.271-0.867-0.498-1.295-0.679c-0.428-0.181-0.93-0.27-1.508-0.27
			c-0.514,0-0.994,0.102-1.439,0.306c-0.445,0.204-0.806,0.494-1.076,0.872c-0.271,0.377-0.408,0.82-0.408,1.326
			c0,0.446,0.118,0.854,0.356,1.227c0.237,0.371,0.568,0.667,0.991,0.885c0.422,0.22,0.899,0.328,1.431,0.328
			c0.428,0,0.835-0.052,1.218-0.156c0.381-0.104,0.703-0.22,0.963-0.346c0.262-0.129,0.531-0.279,0.807-0.453V8.83z"/>
		<path fill="#888888" d="M80.578,7.909v0.37h0.179c0.103,0,0.176-0.014,0.218-0.042c0.044-0.028,0.066-0.074,0.066-0.136
			c0-0.069-0.022-0.12-0.066-0.15c-0.049-0.03-0.125-0.042-0.227-0.042H80.578z M80.402,7.77h0.346c0.158,0,0.275,0.025,0.352,0.079
			c0.082,0.051,0.123,0.127,0.123,0.23c0,0.079-0.027,0.146-0.07,0.2c-0.045,0.054-0.107,0.086-0.188,0.098l0.249,0.517h-0.194
			l-0.224-0.496h-0.217v0.496h-0.176V7.77z"/>
		<path fill="#888888" d="M80.762,7.441c-0.141,0-0.277,0.031-0.395,0.091c-0.123,0.058-0.229,0.144-0.316,0.257
			c-0.063,0.08-0.109,0.169-0.145,0.265c-0.032,0.095-0.049,0.191-0.049,0.295c0,0.118,0.023,0.234,0.066,0.348
			c0.046,0.107,0.113,0.204,0.197,0.288c0.088,0.087,0.187,0.156,0.297,0.204c0.219,0.091,0.46,0.094,0.687,0
			c0.112-0.046,0.214-0.111,0.3-0.197c0.092-0.083,0.154-0.178,0.2-0.289c0.045-0.11,0.067-0.23,0.067-0.354
			c0-0.116-0.021-0.234-0.067-0.345c-0.044-0.109-0.108-0.205-0.194-0.293c-0.084-0.087-0.185-0.154-0.293-0.199
			C81.006,7.464,80.885,7.441,80.762,7.441 M80.762,9.426c-0.139,0-0.275-0.026-0.409-0.083c-0.13-0.058-0.249-0.139-0.351-0.237
			c-0.099-0.104-0.178-0.217-0.229-0.349c-0.056-0.133-0.081-0.269-0.081-0.408c0-0.121,0.018-0.236,0.057-0.349
			c0.039-0.115,0.098-0.22,0.172-0.315c0.104-0.132,0.229-0.233,0.373-0.303c0.264-0.131,0.604-0.143,0.888-0.025
			c0.13,0.056,0.247,0.133,0.347,0.24c0.104,0.098,0.18,0.215,0.233,0.345c0.052,0.131,0.08,0.268,0.08,0.407
			c0,0.145-0.029,0.285-0.081,0.416c-0.056,0.135-0.137,0.25-0.237,0.346c-0.103,0.099-0.221,0.178-0.353,0.232
			C81.039,9.399,80.902,9.426,80.762,9.426"/>
	</g>
	<g>
		<path fill="#888888" d="M10.275,0.909H7.727V0H6.828H5.682v0.909H3.393L0,4.698V10h13.409V4.698L10.275,0.909z M12.5,9.091H7.272
			V5.682H12.5V9.091z"/>
		<polygon fill="#666666" points="12.296,4.76 9.909,2.022 4.918,2.022 7.314,4.76 		"/>
		<polygon fill="#AAAAAA" points="6.117,4.764 3.776,2.015 1.372,4.764 		"/>
		<rect x="1.123" y="5.718" fill="#AAAAAA" width="5.229" height="3.446"/>
	</g>
</g>
</svg>
