<?xml version="1.0" encoding="utf-8"?>
<!-- Generator: Adobe Illustrator 16.0.0, SVG Export Plug-In . SVG Version: 6.00 Build 0)  -->
<svg version="1.2" baseProfile="tiny" id="Layer_1" xmlns="http://www.w3.org/2000/svg" xmlns:xlink="http://www.w3.org/1999/xlink"
	 x="0px" y="0px" width="40px" height="24px" viewBox="0 0 40 24" xml:space="preserve">
<path d="M12424.563,16.107c0-2.715,0.672-4.941,2.018-6.68c1.334-1.714,3.023-2.571,5.072-2.571c0.855,0,1.91,0.179,3.16,0.536
	c1.238,0.357,2.059,0.536,2.465,0.536c0.535,0,1.387-0.203,2.553-0.607c1.215-0.405,2.244-0.607,3.09-0.607
	c1.416,0,2.684,0.387,3.803,1.161c0.621,0.429,1.238,1.024,1.857,1.786c-0.939,0.797-1.619,1.5-2.035,2.107
	c-0.775,1.119-1.162,2.351-1.162,3.695c0,1.477,0.41,2.804,1.232,3.982c0.822,1.178,1.762,1.928,2.822,2.25
	c-0.465,1.488-1.197,2.976-2.197,4.464c-1.535,2.333-3.064,3.5-4.588,3.5c-0.584,0-1.418-0.19-2.5-0.571
	c-1.025-0.381-1.924-0.57-2.697-0.57c-0.725,0-1.57,0.195-2.535,0.588c-0.965,0.405-1.75,0.607-2.357,0.607
	c-1.809,0-3.602-1.541-5.375-4.625C12425.438,21.982,12424.563,18.988,12424.563,16.107L12424.563,16.107z M12436.758,7.232
	c0.037-1.774,0.5-3.304,1.395-4.589c0.879-1.274,2.367-2.155,4.463-2.643c0.012,0.036,0.027,0.102,0.045,0.196
	c0.02,0.095,0.033,0.16,0.045,0.196c0,0.047,0.004,0.107,0.01,0.179c0.006,0.072,0.008,0.132,0.008,0.179
	c0,0.726-0.172,1.536-0.518,2.429c-0.357,0.893-0.91,1.714-1.66,2.464c-0.643,0.643-1.287,1.071-1.93,1.286
	C12438.176,7.06,12437.555,7.161,12436.758,7.232L12436.758,7.232z"/>
<path d="M14912.594,105.111c0-187.333,46.375-340.974,139.188-460.921c92.063-118.263,208.625-177.394,350-177.394
	c59.063,0,131.813,12.332,218.063,36.995c85.438,24.663,142.063,36.995,170.125,36.995c36.875,0,95.688-13.982,176.125-41.88
	c83.813-27.932,154.875-41.914,213.188-41.914c97.75,0,185.188,26.719,262.438,80.122c42.813,29.583,85.438,70.654,128.125,123.25
	c-64.813,54.987-111.688,103.505-140.375,145.419c-53.563,77.225-80.188,162.199-80.188,254.989c0,101.888,28.25,193.466,85,274.801
	c56.75,81.268,121.563,133.021,194.75,155.258c-32.063,102.696-82.625,205.326-151.625,308.022
	c-105.938,160.985-211.438,241.512-316.563,241.512c-40.313,0-97.875-13.141-172.5-39.421
	c-70.75-26.28-132.75-39.354-186.125-39.354c-50,0-108.375,13.478-174.938,40.566c-66.563,27.965-120.75,41.914-162.688,41.914
	c-124.813,0-248.5-106.335-370.875-319.141C14972.969,510.507,14912.594,303.9,14912.594,105.111L14912.594,105.111z
	 M15754.094-507.327c2.563-122.407,34.5-227.968,96.25-316.648c60.625-87.905,163.313-148.721,307.938-182.38
	c0.813,2.493,1.875,7.008,3.125,13.511c1.313,6.537,2.25,11.051,3.063,13.545c0,3.268,0.25,7.378,0.688,12.332
	c0.375,4.986,0.563,9.097,0.563,12.365c0,50.102-11.875,105.965-35.75,167.623c-24.625,61.591-62.813,118.263-114.563,170.015
	c-44.313,44.34-88.813,73.923-133.125,88.748c-30.313,8.996-73.188,16.004-128.188,20.958V-507.327z"/>
<path d="M-24576,880.211c0-1788.211,442-3254.805,1329-4399.773c878-1128.889,1991-1693.01,3341-1693.01
	c563,0,1258,117.068,2081,352.496c816,235.428,1356,353.783,1623,353.783c353,0,914-133.795,1682-400.098
	c800-266.301,1478-400.096,2035-400.096c933,0,1768,254.725,2506,764.814c408,282.383,815,674.762,1223,1176.488
	c-620,524.883-1067,988.02-1341,1388.113c-510,737.156-765,1548.285-765,2434.027c0,972.582,270,1846.746,811,2623.137
	c542,775.75,1161,1269.758,1859,1482.027c-306,980.301-788,1959.957-1447,2940.258c-1011,1536.703-2019,2305.375-3023,2305.375
	c-384,0-933-125.43-1646-376.293c-675-250.867-1267-375.656-1776-375.656c-478,0-1035,128.648-1670,387.234
	c-636,266.945-1153,400.094-1553,400.094c-1191,0-2372-1015.035-3540-3046.391C-24000,4749.949-24576,2777.77-24576,880.211
	L-24576,880.211z M-16544-4965.568c25-1168.77,330-2176.729,918-3023.234c581-838.787,1560-1418.99,2941-1740.611
	c7,23.801,18,66.898,29,128.648c12,63.037,22,105.492,30,129.936c0,30.875,2,70.113,6,117.068c4,47.602,6,87.482,6,118.357
	c0,478.572-114,1011.176-342,1600.385c-235,587.922-599,1128.244-1093,1622.254c-423,423.254-847,706.279-1271,847.793
	C-15610-5079.422-16018-5012.525-16544-4965.568L-16544-4965.568z"/>
<path fill="#DD0021" d="M0.875,12.91c0-1.977,0.49-3.598,1.47-4.864c0.971-1.249,2.202-1.873,3.693-1.873
	c0.625,0,1.392,0.13,2.302,0.39c0.901,0.261,1.5,0.391,1.794,0.391c0.391,0,1.011-0.147,1.86-0.442
	c0.885-0.295,1.635-0.442,2.25-0.442c1.031,0,1.955,0.282,2.77,0.846c0.451,0.312,0.902,0.746,1.352,1.301
	c-0.685,0.581-1.179,1.092-1.482,1.534c-0.563,0.815-0.846,1.712-0.846,2.691c0,1.075,0.299,2.042,0.897,2.899
	c0.599,0.857,1.283,1.404,2.055,1.639c-0.338,1.084-0.871,2.168-1.599,3.252c-1.118,1.697-2.232,2.549-3.342,2.549
	c-0.424,0-1.032-0.141-1.82-0.416c-0.746-0.277-1.401-0.416-1.963-0.416c-0.529,0-1.145,0.143-1.847,0.428
	c-0.702,0.297-1.274,0.443-1.716,0.443c-1.318,0-2.623-1.123-3.915-3.369C1.512,17.189,0.875,15.008,0.875,12.91L0.875,12.91z
	 M9.757,6.447c0.026-1.292,0.364-2.406,1.015-3.342c0.641-0.928,1.725-1.569,3.25-1.925c0.009,0.026,0.02,0.074,0.033,0.143
	s0.024,0.117,0.032,0.143c0,0.035,0.003,0.078,0.007,0.131c0.004,0.052,0.006,0.096,0.006,0.13c0,0.529-0.125,1.118-0.378,1.769
	c-0.26,0.65-0.663,1.248-1.209,1.794c-0.468,0.468-0.937,0.78-1.405,0.937C10.789,6.322,10.337,6.396,9.757,6.447L9.757,6.447z"/>
<path fill="#DD0021" d="M21.063,15.065V9.549c0-0.359,0.129-0.667,0.385-0.924c0.258-0.256,0.569-0.384,0.938-0.384
	c0.358,0,0.667,0.128,0.923,0.384c0.257,0.257,0.386,0.565,0.386,0.924v5.516c0,0.368-0.126,0.681-0.379,0.937
	c-0.253,0.257-0.563,0.385-0.93,0.385c-0.368,0-0.68-0.128-0.938-0.385C21.191,15.746,21.063,15.434,21.063,15.065z M24.154,8.023
	c0-1.001,0.273-1.922,0.821-2.765c0.547-0.842,1.282-1.499,2.205-1.969l-0.91-1.68c-0.06-0.111-0.039-0.197,0.063-0.257
	c0.112-0.052,0.197-0.025,0.257,0.077l0.924,1.693c0.813-0.359,1.672-0.539,2.577-0.539c0.908,0,1.767,0.18,2.579,0.539l0.923-1.693
	c0.061-0.103,0.146-0.129,0.257-0.077c0.103,0.06,0.124,0.146,0.064,0.257l-0.911,1.68c0.916,0.47,1.646,1.127,2.193,1.969
	c0.548,0.843,0.821,1.764,0.821,2.765H24.154L24.154,8.023z M24.205,17.028V8.485H35.98v8.543c0,0.393-0.136,0.727-0.41,1.001
	c-0.273,0.274-0.603,0.41-0.986,0.41h-0.963v2.912c0,0.367-0.127,0.679-0.385,0.937c-0.257,0.257-0.569,0.385-0.937,0.385
	c-0.368,0-0.681-0.128-0.937-0.385c-0.257-0.258-0.386-0.569-0.386-0.937v-2.912h-1.771v2.912c0,0.367-0.128,0.679-0.384,0.937
	c-0.257,0.257-0.569,0.385-0.938,0.385c-0.358,0-0.667-0.128-0.924-0.385c-0.257-0.258-0.385-0.569-0.385-0.937l-0.013-2.912h-0.949
	c-0.393,0-0.727-0.138-1-0.41C24.341,17.755,24.204,17.422,24.205,17.028L24.205,17.028z M26.899,5.381
	c0,0.137,0.047,0.254,0.14,0.353c0.094,0.098,0.21,0.147,0.347,0.147c0.138,0,0.255-0.049,0.354-0.147
	c0.098-0.098,0.146-0.216,0.146-0.353c0-0.137-0.049-0.254-0.146-0.353c-0.099-0.099-0.216-0.147-0.354-0.147
	c-0.137,0-0.253,0.049-0.347,0.147C26.946,5.126,26.899,5.244,26.899,5.381z M32.3,5.381c0,0.137,0.048,0.254,0.147,0.353
	C32.545,5.832,32.663,5.88,32.8,5.88s0.252-0.049,0.346-0.147s0.142-0.216,0.142-0.353c0-0.137-0.048-0.254-0.142-0.353
	C33.052,4.93,32.937,4.881,32.8,4.881s-0.255,0.049-0.353,0.147C32.348,5.126,32.3,5.244,32.3,5.381z M36.494,15.065V9.549
	c0-0.368,0.128-0.678,0.385-0.93c0.257-0.252,0.565-0.378,0.924-0.378c0.368,0,0.68,0.126,0.937,0.378
	c0.257,0.252,0.386,0.562,0.386,0.93v5.516c0,0.368-0.129,0.681-0.386,0.937c-0.257,0.257-0.568,0.385-0.937,0.385
	c-0.358,0-0.667-0.128-0.924-0.385C36.622,15.746,36.494,15.434,36.494,15.065z"/>
</svg>
