<?xml version="1.0" encoding="utf-8"?>
<!-- Generator: Adobe Illustrator 16.0.0, SVG Export Plug-In . SVG Version: 6.00 Build 0)  -->
<svg version="1.2" baseProfile="tiny" id="Layer_1" xmlns="http://www.w3.org/2000/svg" xmlns:xlink="http://www.w3.org/1999/xlink"
	 x="0px" y="0px" width="9px" height="13px" viewBox="0 0 9 13" xml:space="preserve">
<path fill="#898989" d="M2.551,1.049c0.12,0,0.222,0.043,0.308,0.129L7.87,6.196C7.956,6.281,7.999,6.383,7.999,6.5
	c0,0.117-0.043,0.219-0.129,0.305l-5.012,5.019c-0.086,0.084-0.188,0.127-0.308,0.127s-0.222-0.043-0.308-0.127l-1.116-1.123
	c-0.085-0.086-0.128-0.188-0.128-0.305s0.043-0.219,0.128-0.305L4.718,6.5L1.127,2.909C1.042,2.823,0.999,2.722,0.999,2.604
	s0.043-0.219,0.128-0.304l1.116-1.123C2.329,1.092,2.431,1.049,2.551,1.049z"/>
</svg>
