<?xml version="1.0" encoding="utf-8"?>
<!-- Generator: Adobe Illustrator 16.0.0, SVG Export Plug-In . SVG Version: 6.00 Build 0)  -->
<svg version="1.2" baseProfile="tiny" id="Layer_1" xmlns="http://www.w3.org/2000/svg" xmlns:xlink="http://www.w3.org/1999/xlink"
	 x="0px" y="0px" width="13px" height="9px" viewBox="0 0 13 9" xml:space="preserve">
<path fill="#898989" d="M1.049,6.448c0-0.12,0.043-0.222,0.129-0.308l5.018-5.012C6.281,1.043,6.383,1,6.5,1
	c0.118,0,0.219,0.043,0.305,0.129l5.019,5.013c0.084,0.086,0.127,0.187,0.127,0.307s-0.043,0.222-0.127,0.308l-1.123,1.116
	C10.615,7.957,10.515,8,10.396,8s-0.22-0.043-0.306-0.128L6.5,4.281L2.909,7.872C2.823,7.957,2.723,8,2.604,8
	C2.486,8,2.385,7.957,2.3,7.872L1.177,6.756C1.092,6.67,1.049,6.568,1.049,6.448z"/>
</svg>
