<?xml version="1.0" encoding="utf-8"?>
<!-- Generator: Adobe Illustrator 16.0.0, SVG Export Plug-In . SVG Version: 6.00 Build 0)  -->
<!DOCTYPE svg PUBLIC "-//W3C//DTD SVG 1.1//EN" "http://www.w3.org/Graphics/SVG/1.1/DTD/svg11.dtd">
<svg version="1.1" id="Layer_1" xmlns="http://www.w3.org/2000/svg" xmlns:xlink="http://www.w3.org/1999/xlink" x="0px" y="0px"
	 width="13px" height="9px" viewBox="0 0 13 9" enable-background="new 0 0 13 9" xml:space="preserve">
<path fill="#FFFFFF" d="M11.951,2.552c0,0.12-0.043,0.222-0.129,0.308L6.804,7.871C6.719,7.957,6.617,8,6.5,8
	C6.382,8,6.281,7.957,6.195,7.871L1.176,2.859C1.092,2.773,1.049,2.672,1.049,2.552c0-0.12,0.043-0.222,0.127-0.308l1.123-1.116
	C2.385,1.043,2.486,1,2.604,1s0.219,0.043,0.305,0.128L6.5,4.719l3.591-3.591C10.177,1.043,10.277,1,10.396,1
	c0.117,0,0.219,0.043,0.304,0.128l1.123,1.116C11.908,2.33,11.951,2.432,11.951,2.552z"/>
</svg>
