<?xml version="1.0" encoding="utf-8"?>
<!-- Generator: Adobe Illustrator 16.0.0, SVG Export Plug-In . SVG Version: 6.00 Build 0)  -->
<svg version="1.2" baseProfile="tiny" id="Layer_1" xmlns="http://www.w3.org/2000/svg" xmlns:xlink="http://www.w3.org/1999/xlink"
	 x="0px" y="0px" width="18px" height="18px" viewBox="0 0 18 18" xml:space="preserve">
<path fill="#FFFFFF" d="M0.084,8.999c0-1.617,0.398-3.109,1.195-4.475c0.798-1.365,1.879-2.447,3.245-3.245
	c1.366-0.797,2.858-1.195,4.475-1.195c1.619,0.001,3.11,0.399,4.477,1.195c1.366,0.797,2.448,1.879,3.244,3.245
	c0.797,1.367,1.196,2.858,1.196,4.475c0,1.617-0.399,3.109-1.196,4.477c-0.796,1.366-1.878,2.448-3.244,3.244
	c-1.366,0.797-2.857,1.194-4.477,1.196c-1.616,0-3.108-0.399-4.475-1.196c-1.366-0.798-2.447-1.879-3.245-3.244
	C0.482,12.109,0.084,10.618,0.084,8.999z M3.01,9.22c0,0.209,0.07,0.384,0.209,0.522l4.203,4.203
	c0.146,0.146,0.32,0.221,0.522,0.221c0.209,0,0.388-0.074,0.534-0.221l6.305-6.305c0.139-0.139,0.208-0.313,0.208-0.521
	c0-0.217-0.069-0.395-0.208-0.534L13.727,5.54c-0.148-0.146-0.322-0.221-0.522-0.221c-0.202,0-0.376,0.074-0.522,0.221l-4.737,4.725
	L5.32,7.641c-0.147-0.146-0.321-0.22-0.522-0.22s-0.375,0.073-0.522,0.22L3.219,8.686C3.08,8.825,3.01,9.004,3.01,9.22z"/>
</svg>
