<?xml version="1.0" encoding="utf-8"?>
<!-- Generator: Adobe Illustrator 16.0.0, SVG Export Plug-In . SVG Version: 6.00 Build 0)  -->
<svg version="1.2" baseProfile="tiny" id="Layer_1" xmlns="http://www.w3.org/2000/svg" xmlns:xlink="http://www.w3.org/1999/xlink"
	 x="0px" y="0px" width="64px" height="11px" viewBox="0 0 64 11" xml:space="preserve">
<g>
	<path fill="#D52B1E" d="M16,11H0V0h16V11z"/>
	<path fill="#FFFFFF" d="M5,5h11V0H0L5,5z"/>
	<path fill="#0039A6" d="M5,5L0,5.021V0h5V5z"/>
	<polygon fill="#FFFFFF" points="3.151,2.91 3.935,2.321 2.966,2.321 2.667,1.371 2.367,2.321 1.398,2.321 2.182,2.91 1.883,3.861 
		2.667,3.275 3.45,3.861 	"/>
</g>
<g>
	<rect x="16.002" fill="#74ACDF" width="16" height="11"/>
	<rect x="16.002" y="3.667" fill="#FFFFFF" width="16" height="3.666"/>
	<g id="rays">
		<path id="ray1" fill="#F6B40E" stroke="#85340A" stroke-width="1.1116" d="M23.939,5.529l0.569,1.363c0,0,0.01,0.026,0.026,0.019
			c0.015-0.007,0.005-0.033,0.005-0.033l-0.474-1.406 M24.052,6.002c-0.007,0.207,0.109,0.321,0.094,0.507
			c-0.015,0.185,0.077,0.29,0.098,0.361c0.021,0.072-0.023,0.115-0.004,0.126c0.019,0.01,0.062-0.047,0.047-0.149
			c-0.013-0.103-0.084-0.133-0.067-0.357c0.016-0.228-0.084-0.28-0.059-0.486"/>
		<g transform="rotate(22.5 400,250)">
			<path id="ray1_1_" fill="#F6B40E" stroke="#85340A" stroke-width="1.1116" d="M23.934,5.5L23.985,7c0,0,0,0.027,0.017,0.027
				S24.02,7,24.02,7l0.051-1.5 M23.874,5.984c-0.079,0.189-0.011,0.343-0.089,0.508s-0.029,0.301-0.035,0.376
				c-0.005,0.075-0.061,0.097-0.047,0.114C23.717,7,23.775,6.965,23.798,6.864c0.023-0.1-0.032-0.158,0.062-0.359
				c0.094-0.202,0.02-0.294,0.114-0.474"/>
		</g>
		<g transform="rotate(45 400,250)">
			<path id="ray1_2_" fill="#F6B40E" stroke="#85340A" stroke-width="1.1116" d="M23.939,5.472l-0.474,1.406
				c0,0-0.011,0.026,0.005,0.033c0.016,0.008,0.026-0.019,0.026-0.019l0.569-1.364 M23.715,5.894
				c-0.138,0.142-0.13,0.313-0.259,0.432s-0.131,0.265-0.163,0.332c-0.032,0.068-0.091,0.063-0.083,0.086s0.073,0.015,0.13-0.068
				c0.056-0.083,0.025-0.159,0.182-0.307c0.158-0.147,0.12-0.263,0.27-0.39"/>
		</g>
		<g transform="rotate(67.5 400,250)">
			<path id="ray1_3_" fill="#F6B40E" stroke="#85340A" stroke-width="1.1116" d="M23.954,5.447l-0.927,1.1
				c0,0-0.019,0.021-0.006,0.033c0.011,0.014,0.03-0.007,0.03-0.007l1-1.021 M23.6,5.742c-0.178,0.072-0.229,0.234-0.39,0.289
				c-0.162,0.057-0.214,0.19-0.267,0.239c-0.052,0.05-0.105,0.021-0.107,0.044c0,0.023,0.063,0.045,0.144-0.009
				c0.081-0.053,0.079-0.137,0.275-0.206c0.197-0.068,0.203-0.192,0.385-0.246"/>
		</g>
		<path id="ray2" fill="#85340A" d="M24.088,6.037c0.009,0.199,0.112,0.287,0.091,0.469c0.045-0.144-0.062-0.255-0.056-0.467
			 M23.97,5.517l0.39,0.937l-0.326-0.966"/>
		<g transform="rotate(22.5 400,250)">
			<path id="ray2_1_" fill="#85340A" d="M23.895,6.032c-0.061,0.188,0.003,0.313-0.078,0.472c0.09-0.113,0.031-0.262,0.11-0.455
				 M23.968,5.502l0.034,1.029l0.035-1.029"/>
		</g>
		<g transform="rotate(45 400,250)">
			<path id="ray2_2_" fill="#85340A" d="M23.718,5.947c-0.122,0.147-0.105,0.29-0.237,0.402c0.124-0.067,0.12-0.229,0.26-0.374
				 M23.97,5.487l-0.327,0.965l0.39-0.937"/>
		</g>
		<g transform="rotate(67.5 400,250)">
			<path id="ray2_3_" fill="#85340A" d="M23.584,5.793c-0.164,0.086-0.199,0.224-0.359,0.272c0.138-0.01,0.19-0.161,0.37-0.235
				 M23.977,5.475l-0.637,0.754l0.685-0.701"/>
		</g>
	</g>
	<g>
		<g id="rays_1_">
			<path id="ray1_4_" fill="#F6B40E" stroke="#85340A" stroke-width="1.1116" d="M23.976,5.431l-1.239,0.626
				c0,0-0.024,0.011-0.017,0.028c0.006,0.017,0.03,0.006,0.03,0.006l1.279-0.521 M23.546,5.555c-0.188-0.008-0.292,0.12-0.461,0.104
				c-0.167-0.017-0.263,0.085-0.328,0.108c-0.065,0.023-0.104-0.025-0.115-0.005c-0.009,0.021,0.043,0.068,0.136,0.053
				c0.093-0.015,0.121-0.093,0.326-0.074c0.206,0.018,0.254-0.093,0.441-0.065"/>
			<g transform="rotate(22.5 400,250)">
				<path id="ray1_5_" fill="#F6B40E" stroke="#85340A" stroke-width="1.1116" d="M24.002,5.425l-1.363,0.057
					c0,0-0.025,0-0.025,0.019s0.025,0.019,0.025,0.019l1.363,0.057 M23.562,5.358C23.391,5.271,23.25,5.346,23.1,5.26
					c-0.149-0.086-0.273-0.032-0.342-0.038C22.69,5.216,22.67,5.154,22.655,5.17s0.016,0.08,0.107,0.105
					c0.09,0.025,0.144-0.035,0.327,0.068c0.184,0.104,0.268,0.021,0.431,0.125"/>
			</g>
			<g transform="rotate(45 400,250)">
				<path id="ray1_6_" fill="#F6B40E" stroke="#85340A" stroke-width="1.1116" d="M24.028,5.431L22.75,4.909
					c0,0-0.024-0.012-0.03,0.006c-0.007,0.018,0.017,0.028,0.017,0.028l1.24,0.626 M23.645,5.184
					c-0.129-0.152-0.284-0.143-0.392-0.285c-0.108-0.143-0.241-0.145-0.302-0.179c-0.062-0.035-0.058-0.1-0.078-0.092
					c-0.021,0.008-0.014,0.08,0.062,0.143c0.075,0.062,0.145,0.027,0.279,0.2c0.134,0.174,0.238,0.132,0.354,0.297"/>
			</g>
			<g transform="rotate(67.5 400,250)">
				<path id="ray1_7_" fill="#F6B40E" stroke="#85340A" stroke-width="1.1116" d="M24.05,5.446l-1-1.02c0,0-0.019-0.021-0.03-0.007
					c-0.013,0.012,0.006,0.033,0.006,0.033l0.928,1.1 M23.782,5.058c-0.065-0.196-0.213-0.252-0.263-0.429
					c-0.051-0.178-0.173-0.235-0.217-0.293c-0.046-0.058-0.019-0.116-0.04-0.119c-0.021,0-0.041,0.07,0.008,0.159
					c0.048,0.089,0.125,0.087,0.188,0.303c0.063,0.217,0.174,0.223,0.224,0.424"/>
			</g>
			<path id="ray2_4_" fill="#85340A" d="M23.514,5.595c-0.181,0.01-0.261,0.123-0.426,0.101c0.13,0.049,0.231-0.068,0.425-0.062
				 M23.987,5.465l-0.851,0.429l0.878-0.358"/>
			<g transform="rotate(22.5 400,250)">
				<path id="ray2_5_" fill="#85340A" d="M23.519,5.382c-0.171-0.066-0.284,0.004-0.429-0.086c0.103,0.1,0.238,0.034,0.414,0.121
					 M24,5.462l-0.936,0.037L24,5.537"/>
			</g>
			<g transform="rotate(45 400,250)">
				<path id="ray2_6_" fill="#85340A" d="M23.596,5.188c-0.134-0.134-0.264-0.116-0.366-0.261c0.062,0.136,0.208,0.132,0.34,0.286
					 M24.014,5.464l-0.877-0.359l0.852,0.429"/>
			</g>
			<g transform="rotate(90 400,250)">
				<path id="ray2_7_" fill="#85340A" d="M23.736,5.04c-0.078-0.18-0.203-0.219-0.248-0.395c0.009,0.151,0.146,0.209,0.214,0.407
					 M24.025,5.472L23.34,4.771l0.637,0.754"/>
			</g>
		</g>
		<g>
			<g id="rays_2_">
				<path id="ray1_8_" fill="#F6B40E" stroke="#85340A" stroke-width="1.1116" d="M24.065,5.471l-0.569-1.363
					c0,0-0.01-0.026-0.026-0.019c-0.015,0.007-0.005,0.034-0.005,0.034l0.474,1.406 M23.953,4.998
					c0.007-0.208-0.109-0.321-0.094-0.507c0.015-0.185-0.077-0.29-0.098-0.361c-0.021-0.072,0.023-0.115,0.004-0.126
					c-0.019-0.01-0.062,0.047-0.047,0.149c0.013,0.103,0.084,0.133,0.067,0.358c-0.016,0.227,0.084,0.279,0.059,0.485"/>
				<g transform="rotate(22.5 400,250)">
					<path id="ray1_9_" fill="#F6B40E" stroke="#85340A" stroke-width="1.1116" d="M24.071,5.5L24.02,4c0,0,0-0.027-0.017-0.027
						S23.985,4,23.985,4l-0.051,1.5 M24.131,5.016c0.079-0.188,0.011-0.343,0.089-0.508s0.029-0.301,0.035-0.376
						c0.005-0.075,0.061-0.096,0.047-0.114C24.288,4,24.23,4.035,24.207,4.136c-0.023,0.1,0.032,0.158-0.062,0.359
						c-0.094,0.202-0.02,0.294-0.114,0.474"/>
				</g>
				<g transform="rotate(45 400,250)">
					<path id="ray1_10_" fill="#F6B40E" stroke="#85340A" stroke-width="1.1116" d="M24.065,5.528l0.474-1.406
						c0,0,0.011-0.026-0.005-0.034s-0.026,0.019-0.026,0.019l-0.569,1.364 M24.29,5.106c0.138-0.142,0.13-0.313,0.259-0.432
						s0.131-0.265,0.163-0.332c0.032-0.068,0.091-0.063,0.083-0.086s-0.073-0.015-0.129,0.068c-0.057,0.083-0.026,0.159-0.183,0.307
						c-0.158,0.147-0.12,0.263-0.27,0.39"/>
				</g>
				<g transform="rotate(67.5 400,250)">
					<path id="ray1_11_" fill="#F6B40E" stroke="#85340A" stroke-width="1.1116" d="M24.051,5.553l0.927-1.1
						c0,0,0.019-0.021,0.006-0.033c-0.011-0.014-0.03,0.007-0.03,0.007l-1,1.021 M24.405,5.258c0.178-0.072,0.229-0.234,0.39-0.289
						c0.162-0.056,0.214-0.19,0.267-0.239c0.052-0.05,0.105-0.021,0.107-0.044c0-0.024-0.063-0.045-0.144,0.009
						c-0.081,0.053-0.079,0.137-0.275,0.206c-0.197,0.069-0.203,0.192-0.385,0.246"/>
				</g>
				<path id="ray2_8_" fill="#85340A" d="M23.917,4.962c-0.009-0.199-0.112-0.287-0.091-0.468c-0.045,0.144,0.062,0.255,0.056,0.467
					 M24.035,5.483l-0.39-0.937l0.326,0.966"/>
				<g transform="rotate(22.5 400,250)">
					<path id="ray2_9_" fill="#85340A" d="M24.11,4.968c0.061-0.188-0.003-0.313,0.078-0.472c-0.09,0.113-0.031,0.262-0.11,0.455
						 M24.037,5.498l-0.034-1.029l-0.035,1.029"/>
				</g>
				<g transform="rotate(45 400,250)">
					<path id="ray2_10_" fill="#85340A" d="M24.287,5.053c0.122-0.148,0.105-0.29,0.237-0.402c-0.124,0.067-0.12,0.229-0.26,0.374
						 M24.035,5.513l0.327-0.965l-0.39,0.937"/>
				</g>
				<g transform="rotate(180 400,250)">
					<path id="ray2_11_" fill="#85340A" d="M24.42,5.207c0.164-0.086,0.199-0.224,0.359-0.272c-0.138,0.01-0.19,0.161-0.37,0.235
						 M24.028,5.525l0.637-0.754L23.98,5.473"/>
				</g>
			</g>
			<g>
				<g id="rays_3_">
					<path id="ray1_12_" fill="#F6B40E" stroke="#85340A" stroke-width="1.1116" d="M24.029,5.569l1.239-0.626
						c0,0,0.024-0.011,0.017-0.028c-0.006-0.017-0.03-0.006-0.03-0.006l-1.279,0.521 M24.459,5.445
						c0.188,0.008,0.292-0.12,0.461-0.104c0.167,0.017,0.263-0.085,0.328-0.108c0.065-0.023,0.104,0.025,0.115,0.005
						c0.009-0.021-0.043-0.068-0.136-0.053C25.133,5.2,25.106,5.278,24.901,5.26c-0.206-0.018-0.254,0.093-0.441,0.065"/>
					<g transform="rotate(22.5 400,250)">
						<path id="ray1_13_" fill="#F6B40E" stroke="#85340A" stroke-width="1.1116" d="M24.002,5.575l1.363-0.057
							c0,0,0.025,0,0.025-0.019s-0.025-0.019-0.025-0.019l-1.363-0.057 M24.443,5.642c0.171,0.087,0.312,0.013,0.462,0.099
							c0.149,0.086,0.273,0.032,0.342,0.038c0.068,0.006,0.088,0.067,0.104,0.052s-0.016-0.08-0.107-0.105
							c-0.09-0.025-0.144,0.035-0.327-0.068c-0.184-0.104-0.268-0.021-0.431-0.125"/>
					</g>
					<g transform="rotate(45 400,250)">
						<path id="ray1_14_" fill="#F6B40E" stroke="#85340A" stroke-width="1.1116" d="M23.977,5.569l1.279,0.521
							c0,0,0.024,0.012,0.03-0.006c0.007-0.018-0.017-0.028-0.017-0.028l-1.24-0.626 M24.36,5.816
							c0.129,0.152,0.284,0.143,0.392,0.285c0.108,0.143,0.241,0.145,0.302,0.179c0.062,0.035,0.058,0.1,0.078,0.092
							c0.021-0.008,0.014-0.08-0.062-0.143c-0.075-0.062-0.145-0.026-0.279-0.2c-0.134-0.174-0.238-0.132-0.354-0.297"/>
					</g>
					<g transform="rotate(67.5 400,250)">
						<path id="ray1_15_" fill="#F6B40E" stroke="#85340A" stroke-width="1.1116" d="M23.955,5.554l1,1.02
							c0,0,0.019,0.021,0.03,0.007c0.013-0.013-0.006-0.033-0.006-0.033l-0.928-1.1 M24.223,5.942
							c0.065,0.195,0.213,0.252,0.263,0.429c0.051,0.178,0.173,0.235,0.217,0.293c0.046,0.058,0.019,0.116,0.04,0.118
							c0.021,0.001,0.041-0.069-0.008-0.158c-0.048-0.089-0.125-0.087-0.188-0.303c-0.063-0.217-0.174-0.223-0.224-0.424"/>
					</g>
					<path id="ray2_12_" fill="#85340A" d="M24.491,5.405c0.181-0.01,0.261-0.123,0.426-0.101c-0.13-0.049-0.231,0.068-0.425,0.062
						 M24.018,5.535l0.851-0.429l-0.878,0.358"/>
					<g transform="rotate(22.5 400,250)">
						<path id="ray2_13_" fill="#85340A" d="M24.486,5.618c0.171,0.066,0.284-0.004,0.429,0.086c-0.103-0.1-0.238-0.034-0.414-0.121
							 M24.004,5.538l0.936-0.037l-0.936-0.038"/>
					</g>
					<g transform="rotate(45 400,250)">
						<path id="ray2_14_" fill="#85340A" d="M24.409,5.813c0.134,0.134,0.264,0.116,0.366,0.261
							c-0.062-0.136-0.208-0.132-0.34-0.286 M23.991,5.536l0.877,0.359l-0.852-0.429"/>
					</g>
					<g transform="rotate(270 400,250)">
						<path id="ray2_15_" fill="#85340A" d="M24.269,5.96c0.078,0.18,0.203,0.219,0.248,0.395c-0.009-0.151-0.146-0.209-0.214-0.407
							 M23.979,5.528l0.685,0.701l-0.637-0.754"/>
					</g>
				</g>
				<ellipse fill="#F6B40E" stroke="#85340A" stroke-width="1.5" cx="24.002" cy="5.5" rx="0.556" ry="0.611"/>
				<path id="loweyecontour" fill="#843511" d="M24.191,5.369c-0.037,0-0.074,0.019-0.095,0.056c0.042,0.043,0.136,0.047,0.2-0.005
					C24.27,5.388,24.23,5.369,24.191,5.369L24.191,5.369z M24.191,5.379c0.037-0.001,0.071,0.018,0.077,0.036
					c-0.043,0.052-0.112,0.048-0.155,0.01C24.132,5.392,24.163,5.38,24.191,5.379L24.191,5.379z"/>
				<g transform="matrix(-1 0 0 1 800.25 0)">
					<path id="uppalpebra" fill="#85340A" d="M24.199,5.34c-0.055,0-0.068,0.015-0.093,0.038c-0.026,0.023-0.039,0.019-0.044,0.023
						c-0.003,0.005,0,0.019,0.009,0.014c0.009-0.004,0.026-0.014,0.052-0.037c0.025-0.023,0.051-0.023,0.076-0.023
						c0.077,0,0.12,0.07,0.128,0.065C24.335,5.415,24.285,5.34,24.199,5.34L24.199,5.34z"/>
				</g>
				<g transform="matrix(-1 0 0 1 800.25 0)">
					<path id="eyebrow_nose" fill="#85340A" d="M24.353,5.368c-0.098-0.094-0.223-0.107-0.292-0.037
						c-0.016,0.024-0.027,0.051-0.032,0.078c-0.008,0.054,0.007,0.111,0.045,0.171c-0.004,0-0.014,0.005-0.017,0.01
						c-0.035-0.072-0.046-0.146-0.036-0.215c0.004-0.019,0.008-0.036,0.014-0.054C24.13,5.236,24.259,5.228,24.353,5.368
						L24.353,5.368z"/>
				</g>
				<g transform="translate(18.862)">
					<circle id="pupil" fill="#85340A" cx="24.191" cy="5.416" r="0.042"/>
				</g>
				<g transform="matrix(-1 0 0 1 800.25 0)">
					<path id="lowpalpebra" fill="#85340A" d="M24.302,5.443c-0.073,0.062-0.146,0.057-0.188,0.028s-0.042-0.037-0.034-0.037
						c0.008,0,0.017,0.009,0.051,0.028C24.165,5.481,24.217,5.481,24.302,5.443L24.302,5.443z"/>
				</g>
				<path fill="#85340A" d="M23.917,5.585c-0.018,0.003-0.031,0.021-0.031,0.041c0,0.023,0.018,0.042,0.039,0.042
					c0.012,0,0.024-0.006,0.031-0.017c0.015,0.012,0.035,0.013,0.046,0.013c0.002,0,0.004,0,0.005,0
					c0.011,0,0.031-0.001,0.046-0.013c0.007,0.011,0.019,0.017,0.031,0.017c0.021,0,0.039-0.019,0.039-0.042
					c0-0.02-0.013-0.038-0.032-0.041c0.01,0.004,0.017,0.015,0.017,0.026c0,0.016-0.01,0.028-0.024,0.028
					c-0.015,0-0.025-0.012-0.026-0.027c-0.005,0.01-0.021,0.037-0.053,0.039c-0.033-0.001-0.049-0.029-0.054-0.039
					c0,0.016-0.012,0.027-0.025,0.027c-0.014,0-0.026-0.013-0.026-0.028C23.9,5.6,23.907,5.589,23.917,5.585L23.917,5.585z"/>
				<path fill="#85340A" d="M23.959,5.71c-0.042,0-0.06,0.042-0.098,0.07c0.021-0.009,0.038-0.027,0.068-0.047
					c0.029-0.019,0.055,0.005,0.072,0.005h0.001c0.017,0,0.043-0.023,0.073-0.005c0.029,0.02,0.047,0.038,0.068,0.047
					c-0.038-0.028-0.056-0.07-0.098-0.07c-0.009,0-0.026,0.005-0.043,0.014h-0.001C23.984,5.715,23.968,5.71,23.959,5.71z"/>
				<path fill="#85340A" d="M23.944,5.766c-0.016,0.001-0.039,0.004-0.071,0.015c0.078-0.019,0.094,0.01,0.128,0.01h0.001
					c0.034,0,0.051-0.028,0.128-0.01c-0.085-0.028-0.102-0.01-0.128-0.01h-0.001C23.985,5.771,23.973,5.764,23.944,5.766
					L23.944,5.766z"/>
				<path fill="#85340A" d="M23.877,5.78c-0.004,0-0.01,0-0.016,0c0.09,0.01,0.046,0.066,0.14,0.066h0.001
					c0.094,0,0.051-0.057,0.141-0.066c-0.094-0.009-0.064,0.052-0.141,0.052h-0.001C23.93,5.832,23.952,5.78,23.877,5.78
					L23.877,5.78z"/>
				<path fill="#85340A" d="M24.08,5.933c0-0.047-0.034-0.085-0.077-0.085s-0.077,0.038-0.077,0.085
					c0.009-0.039,0.041-0.067,0.077-0.067S24.071,5.894,24.08,5.933L24.08,5.933L24.08,5.933z"/>
				<path id="eyebrow_nose_1_" fill="#85340A" d="M23.657,5.368c0.099-0.094,0.222-0.107,0.29-0.037
					c0.017,0.024,0.028,0.051,0.032,0.078c0.009,0.054-0.006,0.111-0.044,0.171c0.004,0,0.012,0.005,0.017,0.01
					c0.034-0.072,0.046-0.146,0.035-0.215c-0.003-0.019-0.007-0.036-0.013-0.054C23.879,5.236,23.751,5.228,23.657,5.368
					L23.657,5.368z"/>
				<path id="uppalpebra_1_" fill="#85340A" d="M23.811,5.34c0.055,0,0.068,0.015,0.094,0.038s0.039,0.019,0.042,0.023
					c0.004,0.005,0,0.019-0.008,0.014c-0.009-0.004-0.026-0.014-0.051-0.037c-0.026-0.023-0.052-0.023-0.077-0.023
					c-0.077,0-0.12,0.07-0.128,0.065C23.674,5.415,23.725,5.34,23.811,5.34L23.811,5.34z"/>
				<g transform="translate(-19.181)">
					<path id="loweyecontour_1_" fill="#843511" d="M23.808,5.369c-0.037,0-0.074,0.019-0.095,0.056
						c0.043,0.043,0.137,0.047,0.201-0.005C23.886,5.388,23.846,5.369,23.808,5.369L23.808,5.369z M23.808,5.379
						c0.036-0.001,0.071,0.018,0.075,0.036c-0.042,0.052-0.111,0.048-0.153,0.01C23.749,5.392,23.779,5.38,23.808,5.379
						L23.808,5.379z"/>
				</g>
				<circle id="pupil_1_" fill="#85340A" cx="23.813" cy="5.416" r="0.042"/>
				<path id="lowpalpebra_1_" fill="#85340A" d="M23.709,5.443c0.071,0.062,0.144,0.057,0.187,0.028
					c0.043-0.028,0.043-0.037,0.035-0.037c-0.009,0-0.017,0.009-0.052,0.028C23.845,5.481,23.794,5.481,23.709,5.443L23.709,5.443z"
					/>
			</g>
		</g>
	</g>
</g>
<g>
	<rect x="32" fill="#FCD116" width="16" height="5"/>
	<rect x="32" y="5" fill="#003893" width="16" height="2.751"/>
	<rect x="32" y="8" fill="#CE1126" width="16" height="3"/>
</g>
<g>
	<rect x="48" fill="#D91023" width="16" height="11"/>
	<rect x="53" fill="#FFFFFF" width="6" height="11"/>
</g>
</svg>
