<?xml version="1.0" encoding="utf-8"?>
<!-- Generator: Adobe Illustrator 16.0.0, SVG Export Plug-In . SVG Version: 6.00 Build 0)  -->
<svg version="1.2" baseProfile="tiny" id="Layer_1" xmlns="http://www.w3.org/2000/svg" xmlns:xlink="http://www.w3.org/1999/xlink"
	 x="0px" y="0px" width="250px" height="250px" viewBox="0 0 250 250" xml:space="preserve">
<rect fill="#F1F1F1" width="250" height="250"/>
<path fill="#333333" d="M111.25,135.047l12-22c0.177-0.323,0.422-0.578,0.734-0.766c0.312-0.188,0.651-0.282,1.016-0.281
	c0.365,0,0.704,0.094,1.016,0.281c0.313,0.187,0.557,0.441,0.734,0.766l12,22c0.365,0.656,0.354,1.313-0.031,1.969
	c-0.178,0.303-0.42,0.541-0.727,0.719C137.685,137.912,137.354,138,137,138h-24c-0.354,0-0.685-0.088-0.992-0.266
	c-0.307-0.178-0.549-0.416-0.727-0.719C110.896,136.359,110.885,135.703,111.25,135.047z M122.75,120.5l0.266,7.141
	c0,0.104,0.052,0.189,0.156,0.258s0.229,0.102,0.375,0.102h2.891c0.146,0,0.27-0.033,0.367-0.102c0.1-0.068,0.154-0.154,0.164-0.258
	l0.281-7.172c0-0.125-0.052-0.224-0.156-0.297c-0.135-0.115-0.26-0.172-0.375-0.172h-3.437c-0.115,0-0.24,0.057-0.375,0.172
	C122.803,120.244,122.751,120.354,122.75,120.5L122.75,120.5z M123,133.484c0,0.145,0.049,0.268,0.148,0.367
	c0.099,0.098,0.216,0.146,0.352,0.146h3c0.135,0,0.252-0.049,0.352-0.146c0.1-0.1,0.148-0.223,0.148-0.367v-2.969
	c0-0.146-0.049-0.27-0.148-0.367c-0.098-0.1-0.215-0.148-0.352-0.148h-3c-0.135,0-0.252,0.049-0.352,0.148
	c-0.099,0.098-0.148,0.221-0.148,0.367V133.484z"/>
</svg>
