<?xml version="1.0" encoding="utf-8"?>
<!-- Generator: Adobe Illustrator 16.0.0, SVG Export Plug-In . SVG Version: 6.00 Build 0)  -->
<svg version="1.2" baseProfile="tiny" id="Layer_1" xmlns="http://www.w3.org/2000/svg" xmlns:xlink="http://www.w3.org/1999/xlink"
	 x="0px" y="0px" width="58px" height="34px" viewBox="0 0 58 34" xml:space="preserve">
<g>
	<rect fill="#BCBCBC" width="4" height="4"/>
	<rect y="6" fill="#BCBCBC" width="4" height="4"/>
	<rect y="12" fill="#BCBCBC" width="4" height="4"/>
	<rect x="6" fill="#BCBCBC" width="4" height="4"/>
	<rect x="6" y="6" fill="#BCBCBC" width="4" height="4"/>
	<rect x="6" y="12" fill="#BCBCBC" width="4" height="4"/>
	<rect x="12" fill="#BCBCBC" width="4" height="4"/>
	<rect x="12" y="6" fill="#BCBCBC" width="4" height="4"/>
	<rect x="12" y="12" fill="#BCBCBC" width="4" height="4"/>
</g>
<g>
	<rect x="39" fill="#BCBCBC" width="4" height="4"/>
	<rect x="39" y="6" fill="#BCBCBC" width="4" height="4"/>
	<rect x="39" y="12" fill="#BCBCBC" width="4" height="4"/>
	<rect x="44" fill="#BCBCBC" width="4" height="4"/>
	<rect x="44" y="6" fill="#BCBCBC" width="4" height="4"/>
	<rect x="44" y="12" fill="#BCBCBC" width="4" height="4"/>
	<rect x="49" fill="#BCBCBC" width="4" height="4"/>
	<rect x="49" y="6" fill="#BCBCBC" width="4" height="4"/>
	<rect x="49" y="12" fill="#BCBCBC" width="4" height="4"/>
	<rect x="54" fill="#BCBCBC" width="4" height="4"/>
	<rect x="54" y="6" fill="#BCBCBC" width="4" height="4"/>
	<rect x="54" y="12" fill="#BCBCBC" width="4" height="4"/>
</g>
<g>
	<rect x="18" fill="#BCBCBC" width="4" height="4"/>
	<rect x="18" y="6" fill="#BCBCBC" width="4" height="4"/>
	<rect x="18" y="12" fill="#BCBCBC" width="4" height="4"/>
	<rect x="24" fill="#BCBCBC" width="13" height="4"/>
	<rect x="24" y="6" fill="#BCBCBC" width="13" height="4"/>
	<rect x="24" y="12" fill="#BCBCBC" width="13" height="4"/>
</g>
<g>
	<rect y="18" fill="#9C9C9C" width="4" height="4"/>
	<rect y="24" fill="#9C9C9C" width="4" height="4"/>
	<rect y="30" fill="#9C9C9C" width="4" height="4"/>
	<rect x="6" y="18" fill="#9C9C9C" width="4" height="4"/>
	<rect x="6" y="24" fill="#9C9C9C" width="4" height="4"/>
	<rect x="6" y="30" fill="#9C9C9C" width="4" height="4"/>
	<rect x="12" y="18" fill="#9C9C9C" width="4" height="4"/>
	<rect x="12" y="24" fill="#9C9C9C" width="4" height="4"/>
	<rect x="12" y="30" fill="#9C9C9C" width="4" height="4"/>
</g>
<g>
	<rect x="39" y="18" fill="#9C9C9C" width="4" height="4"/>
	<rect x="39" y="24" fill="#9C9C9C" width="4" height="4"/>
	<rect x="39" y="30" fill="#9C9C9C" width="4" height="4"/>
	<rect x="44" y="18" fill="#9C9C9C" width="4" height="4"/>
	<rect x="44" y="24" fill="#9C9C9C" width="4" height="4"/>
	<rect x="44" y="30" fill="#9C9C9C" width="4" height="4"/>
	<rect x="49" y="18" fill="#9C9C9C" width="4" height="4"/>
	<rect x="49" y="24" fill="#9C9C9C" width="4" height="4"/>
	<rect x="49" y="30" fill="#9C9C9C" width="4" height="4"/>
	<rect x="54" y="18" fill="#9C9C9C" width="4" height="4"/>
	<rect x="54" y="24" fill="#9C9C9C" width="4" height="4"/>
	<rect x="54" y="30" fill="#9C9C9C" width="4" height="4"/>
</g>
<g>
	<rect x="18" y="18" fill="#9C9C9C" width="4" height="4"/>
	<rect x="18" y="24" fill="#9C9C9C" width="4" height="4"/>
	<rect x="18" y="30" fill="#9C9C9C" width="4" height="4"/>
	<rect x="24" y="18" fill="#9C9C9C" width="13" height="4"/>
	<rect x="24" y="24" fill="#9C9C9C" width="13" height="4"/>
	<rect x="24" y="30" fill="#9C9C9C" width="13" height="4"/>
</g>
</svg>
