<?xml version="1.0" encoding="utf-8"?>
<!-- Generator: Adobe Illustrator 16.0.0, SVG Export Plug-In . SVG Version: 6.00 Build 0)  -->
<svg version="1.2" baseProfile="tiny" id="Layer_1" xmlns="http://www.w3.org/2000/svg" xmlns:xlink="http://www.w3.org/1999/xlink"
	 x="0px" y="0px" width="55px" height="55px" viewBox="0 0 55 55" xml:space="preserve">
<g>
	<circle fill="#3E454B" cx="34.825" cy="40.998" r="2.594"/>
	<circle fill="#3E454B" cx="23.875" cy="40.998" r="2.594"/>
	<path fill="#3E454B" d="M41.014,18.507c-0.187-0.058-0.374-0.081-0.558-0.074c-0.138-0.036-0.281-0.056-0.43-0.056h-21.51
		l-1.073-3.756c-0.205-0.718-0.86-1.213-1.607-1.213H9.628c-0.923,0-1.671,0.749-1.671,1.672s0.749,1.671,1.671,1.671h4.947
		l5.407,18.927c0.205,0.717,0.861,1.212,1.607,1.212h15.758c0.923,0,1.671-0.748,1.671-1.672c0-0.923-0.748-1.671-1.671-1.671H22.85
		l-0.689-2.415h15.464c0.731,0,1.379-0.478,1.597-1.178l2.895-9.357C42.39,19.715,41.896,18.779,41.014,18.507z M36.392,27.789
		H21.206l-1.734-6.069H38.27L36.392,27.789z"/>
</g>
</svg>
