<?xml version="1.0" encoding="utf-8"?>
<!-- Generator: Adobe Illustrator 16.0.0, SVG Export Plug-In . SVG Version: 6.00 Build 0)  -->
<svg version="1.2" baseProfile="tiny" id="Layer_1" xmlns="http://www.w3.org/2000/svg" xmlns:xlink="http://www.w3.org/1999/xlink"
	 x="0px" y="0px" width="34px" height="34px" viewBox="0 0 34 34" xml:space="preserve">
<g>
	<g>
		<path fill="#0072BA" d="M29.797,17.342c-2.629-1.566-3.307-5.244-3.307-8.386c0,0.004,0,0.009,0,0.013
			c-2.523-0.07-5.1-0.542-7.473-0.795c-1.172,3.125-2.007,5.797-2.007,5.797s-0.32,16.339,0.627,16.688
			c6.82,1.606,12.138,0,12.138,0C28.893,29.137,29.797,17.342,29.797,17.342z"/>
		<path fill="#EB6262" d="M20.953,8.174h0.002c0.014-0.035,0.027-0.072,0.041-0.107C20.982,8.1,20.967,8.141,20.953,8.174z"/>
		<path fill="#EB6262" d="M26.49,8.956c0-2.315,0.129-4.335,0.133-5.009c-0.004-0.144-0.045-0.232-0.064-0.242
			c-0.322-0.161-5.393-0.723-5.393-0.723c-0.637,1.295-1.598,3.637-2.162,5.084c-0.014,0.035,0.029,0.072,0.018,0.107
			c2.373,0.253,4.945,0.725,7.469,0.795C26.49,8.965,26.49,8.96,26.49,8.956z"/>
		<path fill="#0072BA" d="M16.202,8.236c-2.373,0.253-5.061,0.662-7.438,0.732c-0.084,3.137-0.742,6.807-3.366,8.373
			c0,0,0.882,11.795,0,13.317c0,0,5.294,1.606,12.114,0c0.945-0.35,0.64-16.688,0.64-16.688S17.36,11.334,16.202,8.236z"/>
		<path fill="#EB6262" d="M16.204,8.236c-0.008-0.018-0.018-0.039-0.025-0.058c0.008,0.021,0.016,0.038,0.023,0.058H16.204z"/>
		<path fill="#EB6262" d="M16.178,8.179c-0.562-1.444-1.555-3.889-2.196-5.196c0,0-5.055,0.562-5.376,0.723
			c-0.02,0.01-0.03,0.094-0.033,0.23c0,0.666,0.252,2.699,0.191,5.033c2.377-0.07,5.064-0.479,7.438-0.732
			C16.194,8.217,16.186,8.199,16.178,8.179z"/>
	</g>
	<polygon fill="#F8F7F6" points="24.914,12.75 20.914,12.931 20.914,10.75 24.914,11.021 	"/>
	<circle fill="#F8F7F6" cx="17.455" cy="15.947" r="1.131"/>
	<circle fill="#F8F7F6" cx="17.455" cy="20.947" r="1.131"/>
	<circle fill="#F8F7F6" cx="17.455" cy="25.947" r="1.131"/>
</g>
</svg>
